<svg width="175" height="58" viewBox="0 0 175 58" fill="none" xmlns="http://www.w3.org/2000/svg">
<path d="M2.13978 26.5819V27.2876C3.29787 26.8171 4.41977 26.5819 5.50095 26.5819C6.47357 26.5819 7.31499 26.8035 8.01618 27.2469C8.71737 27.6902 9.2376 28.2692 9.56784 28.984C9.91617 29.7214 10.0881 30.4995 10.0881 31.3183C10.0881 32.1823 9.8845 33.0328 9.47284 33.8652C9.06569 34.6614 8.44594 35.3263 7.61356 35.8602C6.79023 36.3668 5.80405 36.6156 4.65953 36.6156C4.08501 36.6156 3.24358 36.4211 2.13526 36.0321V37.3078C2.13526 37.8144 2.48811 38.0632 3.19835 38.0632C3.29335 38.0632 3.3793 38.0587 3.4562 38.0451C3.53763 38.0316 3.61906 38.027 3.70049 38.027V38.4478H0.144791V38.027H1.28026V28.1471C1.28026 27.7445 1.18074 27.4504 0.981692 27.2695C0.769074 27.1066 0.443361 27.0252 3.05176e-05 27.0252V26.5864H2.13978V26.5819ZM2.13978 34.9102C2.94501 35.6882 3.87239 36.0773 4.92191 36.0773C5.64571 36.0773 6.33333 35.8782 6.99833 35.4756C7.68142 35.0685 8.21522 34.5437 8.60427 33.9014C9.01141 33.2409 9.21951 32.5442 9.21951 31.8159C9.21951 31.644 9.21498 31.5083 9.19689 31.3952C9.16974 31.1916 9.15617 31.0649 9.15617 31.0152C8.99784 29.6807 8.51379 28.69 7.70404 28.0476C6.89428 27.4052 5.9669 27.0795 4.92191 27.0795C4.33382 27.0795 3.79549 27.179 3.30692 27.3781C2.81835 27.5545 2.4293 27.8123 2.13978 28.1471V34.9102Z" fill="#7B7B7B"/>
<path d="M18.0861 27.1428V37.3123C18.0861 37.5385 18.1268 37.7285 18.2083 37.8868C18.2987 38.0089 18.4933 38.0723 18.8009 38.0723C18.8687 38.0723 18.9366 38.0677 19.0045 38.0542C19.0723 38.0406 19.1492 38.0361 19.2397 38.0361V38.4568H16.0911V38.0361H17.1045V30.6035H13.5081V37.1766C13.5081 37.5385 13.5488 37.7782 13.6302 37.8913C13.7343 38.0135 13.8835 38.0768 14.0916 38.0768C14.1459 38.0768 14.2092 38.0723 14.2771 38.0587C14.354 38.0451 14.4309 38.0406 14.5123 38.0406V38.4613H11.3864V38.0406H12.5083V28.1471C12.5083 27.8259 12.4812 27.6133 12.4269 27.5047C12.3907 27.3735 12.2957 27.2785 12.1283 27.2061C11.9835 27.1654 11.7347 27.1428 11.3819 27.1428V26.7221H14.354V27.1428H13.5035V30.0335H17.0999V28.1471C17.0999 27.7852 17.0411 27.5318 16.928 27.378C16.8059 27.2197 16.4847 27.1428 15.969 27.1428V26.7221H19.0859V27.1428H18.0861Z" fill="#7B7B7B"/>
<path d="M26.1068 38.0315L23.9489 30.8975H22.5285L21.2528 36.611C21.2528 36.6382 21.2392 36.7332 21.212 36.896C21.1759 37.0182 21.1623 37.0905 21.1623 37.1086C21.1623 37.751 21.5468 38.0677 22.3158 38.0677C22.3837 38.0677 22.447 38.0632 22.5013 38.0496C22.5601 38.036 22.6189 38.0315 22.6732 38.0315V38.4522H19.6785V38.0315H20.2394L23.0894 26.0118H23.5101L26.8125 37.0317C26.9211 37.4344 27.0477 37.7148 27.1925 37.8686C27.3372 38.0043 27.5137 38.0722 27.7353 38.0722C27.7987 38.0722 27.853 38.0677 27.9072 38.0541C27.9615 38.0405 28.0249 38.036 28.0927 38.036V38.4567H25.2744V38.036H26.1068V38.0315ZM23.7996 30.4542L23.2387 28.4411L22.6778 30.4542H23.7996Z" fill="#7B7B7B"/>
<path d="M28.3687 26.5818H30.5039V27.7263C31.7932 26.8623 33.0372 26.428 34.236 26.428C35.1408 26.428 35.9505 26.6813 36.6563 27.1834C37.3665 27.6675 37.9229 28.3189 38.3346 29.1377C38.7236 29.9203 38.9181 30.7482 38.9181 31.6213C38.9181 32.4446 38.7462 33.191 38.3979 33.8605C38.0586 34.5753 37.5293 35.1634 36.8146 35.6203C36.1044 36.0953 35.1951 36.3758 34.0822 36.4572C34.3672 36.5658 34.806 36.7784 35.3986 37.0905C35.5479 37.172 35.756 37.2715 36.0184 37.3936C36.2808 37.5112 36.4979 37.6108 36.6698 37.6832C36.8417 37.7601 36.991 37.8189 37.1132 37.8686C37.5791 38.0451 38.0767 38.1355 38.6105 38.1355C38.692 38.1355 38.9498 38.0993 39.3796 38.0315L39.6781 38.3301C39.2891 38.5472 38.7598 38.6558 38.0903 38.6558C37.5248 38.6558 36.8915 38.5517 36.1948 38.3481C35.5344 38.1355 34.8829 37.8912 34.236 37.6108C33.752 37.3846 33.0418 37.0317 32.1008 36.5477L30.5084 35.7515V37.172C30.5084 37.5203 30.5944 37.7601 30.7663 37.8867C30.9291 38.0089 31.1734 38.0722 31.4901 38.0722C31.5806 38.0722 31.671 38.0677 31.766 38.0541C31.861 38.0405 31.9651 38.036 32.0827 38.036V38.4567H28.6673V38.036H29.5042V28.4637C29.5042 27.9751 29.4318 27.6132 29.2915 27.378C29.1468 27.1382 28.8437 27.0206 28.3732 27.0206V26.5818H28.3687ZM30.5039 28.4411V34.4713C31.7751 35.5117 32.9694 36.0365 34.0777 36.0365C34.8648 36.0365 35.566 35.8148 36.1677 35.3715C36.7784 34.9282 37.2534 34.3763 37.5882 33.7158C37.9274 33.0689 38.0993 32.4672 38.0993 31.9153V31.5987C38.0993 30.6532 37.8958 29.8389 37.4886 29.1558C37.0679 28.4953 36.5205 27.9977 35.8555 27.663C35.1815 27.3418 34.4758 27.1834 33.7339 27.1834C33.1006 27.1834 32.5125 27.2965 31.9696 27.5227C31.3634 27.7625 30.8794 28.0656 30.5039 28.4411Z" fill="#7B7B7B"/>
<path d="M46.4186 38.0315L44.2607 30.8975H42.8403L41.5645 36.611C41.5645 36.6382 41.551 36.7332 41.5238 36.896C41.4876 37.0182 41.4741 37.0905 41.4741 37.1086C41.4741 37.751 41.8586 38.0677 42.6276 38.0677C42.6955 38.0677 42.7588 38.0632 42.8131 38.0496C42.8764 38.036 42.9307 38.0315 42.985 38.0315V38.4522H39.9903V38.0315H40.5512L43.4012 26.0118H43.8219L47.1243 37.0317C47.2328 37.4344 47.3595 37.7148 47.5043 37.8686C47.649 38.0043 47.8255 38.0722 48.0471 38.0722C48.1059 38.0722 48.1647 38.0677 48.219 38.0541C48.2733 38.0405 48.3367 38.036 48.4045 38.036V38.4567H45.5817V38.036H46.4186V38.0315ZM44.1069 30.4542L43.546 28.4411L42.985 30.4542H44.1069Z" fill="#7B7B7B"/>
<path d="M54.7876 26.428H55.0455C56.2985 26.428 57.4295 26.713 58.4383 27.2875C59.4109 27.8756 60.1573 28.6311 60.6776 29.5584C61.1933 30.4722 61.4738 31.4313 61.5145 32.4401V32.7794C61.5145 33.5213 61.3878 34.2632 61.1345 34.996C60.8495 35.7515 60.4559 36.3984 59.9583 36.9367C59.4471 37.5158 58.8002 37.9817 58.0131 38.3301C57.2259 38.6829 56.3438 38.8684 55.3621 38.8865H55.0455C53.7155 38.8865 52.5529 38.6015 51.5486 38.027C50.5398 37.4253 49.8024 36.6698 49.3319 35.747C48.8298 34.8015 48.5764 33.7927 48.5764 32.7296C48.5764 31.9515 48.7076 31.2141 48.9745 30.513C49.246 29.7891 49.6441 29.1287 50.1688 28.518C50.6936 27.9299 51.3405 27.4503 52.1095 27.0749C52.8786 26.7084 53.7743 26.4913 54.7876 26.428ZM54.7876 26.8668C54.0095 26.8894 53.2902 27.0568 52.6298 27.378C52.0417 27.663 51.5169 28.0882 51.0464 28.6446C50.6167 29.1649 50.291 29.7484 50.0738 30.4044C49.8567 31.0377 49.7481 31.7072 49.7481 32.4175C49.7481 32.4717 49.7526 32.5215 49.7707 32.5667C49.7843 32.612 49.7888 32.6663 49.7888 32.7341C49.7888 33.666 49.9879 34.5663 50.3905 35.4303C50.7976 36.2672 51.3993 36.9684 52.191 37.5248C52.9826 38.0541 53.8964 38.321 54.9414 38.321H55.0862C55.1269 38.3346 55.1676 38.3391 55.2083 38.3391C55.7874 38.3391 56.3302 38.2803 56.8324 38.1672C57.339 38.0496 57.8004 37.8686 58.2212 37.6243C59.0309 37.1674 59.6235 36.5522 59.999 35.7832C60.3926 35.0141 60.5916 34.1682 60.5916 33.2498C60.5916 32.2275 60.3609 31.2232 59.895 30.2325C59.4109 29.2463 58.7459 28.4456 57.9 27.8303C57.0495 27.2015 56.0814 26.8804 54.9957 26.8577H54.7876V26.8668Z" fill="#7B7B7B"/>
<path d="M62.6183 38.0316H63.4552V28.2059C63.4552 27.8304 63.3692 27.5364 63.2018 27.3283C63.0571 27.1247 62.7178 27.0207 62.1795 27.0207V26.5819H63.8985L68.3318 36.1904V28.4411C68.3318 28.0204 68.2323 27.6721 68.0333 27.4007C67.8297 27.1473 67.5492 27.0207 67.1963 27.0207V26.5819H69.7523V27.0207H69.0466V39.0087H68.6259L64.0387 29.4635V36.3125C64.0387 36.9866 64.1383 37.439 64.3373 37.6697C64.5228 37.9094 64.8485 38.027 65.319 38.027V38.4478H62.6228V38.0316H62.6183Z" fill="#7B7B7B"/>
<path d="M85.3503 27.0206V26.1611H85.771V30.4542H85.3503C85.3503 29.1061 85.0019 28.1697 84.3098 27.6449C83.5996 27.1292 82.7491 26.8668 81.7539 26.8668C80.7813 26.8668 79.9082 27.1337 79.1346 27.663C78.4108 28.1923 77.8453 28.898 77.4382 29.7801C77.0491 30.617 76.8546 31.5308 76.8546 32.5215C76.8546 33.2092 76.9587 33.8741 77.1713 34.5165C77.3703 35.1363 77.6779 35.7289 78.0896 36.2944C78.4922 36.8191 79.0079 37.267 79.6322 37.6334C80.2339 37.9817 80.9351 38.2125 81.7493 38.3301H81.962C82.0298 38.3436 82.0932 38.3482 82.1474 38.3482C82.6858 38.3482 83.1789 38.2758 83.6312 38.1356C84.061 38.0134 84.4727 37.837 84.8662 37.6153C85.2055 37.4117 85.4181 37.2172 85.4996 37.0317V35.756C85.4996 35.4439 85.3684 35.2403 85.1015 35.1408C84.7939 35.073 84.3415 35.0368 83.7443 35.0368V34.616H87.6393V35.0368H86.4857V36.0365C86.4993 36.1813 86.5446 36.3215 86.6305 36.4572C86.6486 36.4844 86.6712 36.5115 86.6848 36.5387C86.7029 36.5658 86.7119 36.5839 86.721 36.5929C86.7255 36.602 86.7346 36.6065 86.7391 36.6065C86.721 36.6065 86.6803 36.6563 86.626 36.7513C86.3048 37.2398 85.685 37.7239 84.7667 38.1944C83.8619 38.6558 82.8577 38.891 81.7539 38.891C80.4872 38.8684 79.3789 38.5698 78.4334 37.9908C77.9765 37.6967 77.5784 37.371 77.2346 37.0091C76.8908 36.6472 76.6058 36.2491 76.3796 35.8148C75.9182 34.9101 75.683 33.9511 75.683 32.9422C75.683 32.1506 75.8277 31.3589 76.1218 30.5673C76.4158 29.7756 76.8456 29.0608 77.4201 28.4275C77.9856 27.7806 78.6822 27.2694 79.5146 26.8939C80.3515 26.5275 81.297 26.333 82.3465 26.3104C83.3734 26.3059 84.3731 26.5456 85.3503 27.0206Z" fill="#7B7B7B"/>
<path d="M87.8203 26.5818H89.9555V27.7263C91.2448 26.8623 92.4888 26.428 93.6876 26.428C94.5924 26.428 95.4021 26.6813 96.1079 27.1834C96.8181 27.6675 97.3745 28.3189 97.7862 29.1377C98.1752 29.9203 98.3698 30.7482 98.3698 31.6213C98.3698 32.4446 98.1978 33.191 97.8495 33.8605C97.5102 34.5753 96.981 35.1634 96.2662 35.6203C95.556 36.0953 94.6467 36.3758 93.5338 36.4572C93.8188 36.5658 94.2576 36.7784 94.8502 37.0905C94.9995 37.172 95.2076 37.2715 95.47 37.3936C95.7324 37.5158 95.9495 37.6108 96.1214 37.6832C96.2933 37.7601 96.4426 37.8189 96.5648 37.8686C97.0307 38.0451 97.5283 38.1355 98.0621 38.1355C98.1436 38.1355 98.4014 38.0993 98.8312 38.0315L99.1297 38.3301C98.7407 38.5472 98.2114 38.6558 97.5419 38.6558C96.9764 38.6558 96.3431 38.5517 95.6464 38.3481C94.986 38.1355 94.3345 37.8912 93.6876 37.6108C93.2036 37.3846 92.4934 37.0317 91.5569 36.5477L89.9646 35.7515V37.172C89.9646 37.5203 90.0505 37.7601 90.2224 37.8867C90.3853 38.0089 90.6296 38.0722 90.9462 38.0722C91.0367 38.0722 91.1272 38.0677 91.2222 38.0541C91.3172 38.0405 91.4212 38.036 91.5388 38.036V38.4567H88.1234V38.036H88.9603V28.4637C88.9603 27.9751 88.8879 27.6132 88.7477 27.378C88.6029 27.1382 88.2998 27.0206 87.8293 27.0206V26.5818H87.8203ZM89.9555 28.4411V34.4713C91.2267 35.5117 92.421 36.0365 93.5293 36.0365C94.3164 36.0365 95.0176 35.8148 95.6193 35.3715C96.23 34.9282 96.705 34.3763 97.0398 33.7158C97.379 33.0689 97.5509 32.4672 97.5509 31.9153V31.5987C97.5509 30.6532 97.3474 29.8389 96.9402 29.1558C96.5195 28.4953 95.9721 27.9977 95.3071 27.663C94.6331 27.3418 93.9274 27.1834 93.1855 27.1834C92.5522 27.1834 91.9641 27.2965 91.4212 27.5227C90.8196 27.7625 90.331 28.0656 89.9555 28.4411Z" fill="#7B7B7B"/>
<path d="M105.658 26.428H105.911C107.164 26.428 108.295 26.713 109.304 27.2875C110.276 27.8756 111.023 28.6311 111.543 29.5584C112.059 30.4722 112.339 31.4313 112.38 32.4401V32.7794C112.38 33.5213 112.253 34.2632 112 34.996C111.715 35.7515 111.321 36.3984 110.824 36.9367C110.313 37.5158 109.666 37.9817 108.879 38.3301C108.091 38.6829 107.205 38.8684 106.228 38.8865H105.911C104.581 38.8865 103.418 38.6015 102.414 38.027C101.405 37.4253 100.668 36.6698 100.197 35.747C99.6907 34.8015 99.4419 33.7927 99.4419 32.7296C99.4419 31.9515 99.5731 31.2141 99.84 30.513C100.111 29.7891 100.51 29.1287 101.034 28.518C101.559 27.9299 102.206 27.4503 102.975 27.0749C103.749 26.7084 104.64 26.4913 105.658 26.428ZM105.658 26.8668C104.88 26.8894 104.16 27.0568 103.5 27.378C102.916 27.663 102.387 28.0882 101.916 28.6446C101.487 29.1649 101.165 29.7484 100.944 30.4044C100.727 31.0377 100.618 31.7072 100.618 32.4175C100.618 32.4717 100.627 32.5215 100.636 32.5667C100.65 32.612 100.654 32.6663 100.654 32.7341C100.654 33.666 100.858 34.5663 101.256 35.4303C101.663 36.2672 102.265 36.9684 103.056 37.5248C103.848 38.0541 104.762 38.321 105.807 38.321H105.947C105.988 38.3346 106.029 38.3391 106.069 38.3391C106.648 38.3391 107.191 38.2803 107.693 38.1672C108.195 38.0496 108.661 37.8686 109.082 37.6243C109.892 37.1674 110.484 36.5522 110.86 35.7832C111.254 35.0141 111.453 34.1682 111.453 33.2498C111.453 32.2275 111.222 31.2232 110.756 30.2325C110.272 29.2463 109.607 28.4456 108.761 27.8303C107.91 27.2015 106.942 26.8804 105.857 26.8577H105.658V26.8668Z" fill="#7B7B7B"/>
<path d="M118.383 27.1428V26.7221H120.939V27.1428H120.079V36.7513C120.079 37.1856 119.948 37.5611 119.681 37.8642C119.383 38.1989 119.039 38.4387 118.659 38.588C118.247 38.7599 117.804 38.8458 117.315 38.8458C116.605 38.8458 115.967 38.6468 115.402 38.2532C114.863 37.8732 114.56 37.3213 114.501 36.6066V28.1471C114.501 27.758 114.407 27.4866 114.217 27.3283C114.027 27.2061 113.696 27.1428 113.226 27.1428V26.7221H116.352V27.1428H115.501V35.5978C115.501 36.1813 115.596 36.6925 115.786 37.1313C116.003 37.552 116.27 37.8687 116.582 38.0768C116.895 38.2849 117.225 38.3889 117.564 38.3889C118.062 38.3889 118.514 38.1627 118.926 37.7149C119.319 37.258 119.518 36.6292 119.518 35.833V28.0023C119.518 27.6766 119.446 27.4504 119.306 27.3283C119.156 27.2061 118.853 27.1428 118.383 27.1428Z" fill="#7B7B7B"/>
<path d="M123.667 26.5819V27.2876C124.825 26.8171 125.947 26.5819 127.028 26.5819C128.001 26.5819 128.842 26.8035 129.543 27.2469C130.244 27.6902 130.765 28.2692 131.095 28.984C131.443 29.7214 131.615 30.4995 131.615 31.3183C131.615 32.1823 131.411 33.0328 131 33.8652C130.593 34.6614 129.973 35.3263 129.141 35.8602C128.317 36.3668 127.331 36.6156 126.186 36.6156C125.612 36.6156 124.771 36.4211 123.662 36.0321V37.3078C123.662 37.8144 124.015 38.0632 124.725 38.0632C124.82 38.0632 124.906 38.0587 124.979 38.0451C125.06 38.0316 125.141 38.027 125.223 38.027V38.4478H121.667V38.027H122.803V28.1471C122.803 27.7445 122.703 27.4504 122.504 27.2695C122.291 27.1066 121.966 27.0252 121.522 27.0252V26.5864H123.667V26.5819ZM123.667 34.9102C124.472 35.6882 125.399 36.0773 126.449 36.0773C127.173 36.0773 127.86 35.8782 128.525 35.4756C129.208 35.0685 129.742 34.5437 130.131 33.9014C130.538 33.2409 130.746 32.5442 130.746 31.8159C130.746 31.644 130.742 31.5083 130.728 31.3952C130.701 31.1916 130.688 31.0649 130.688 31.0152C130.529 29.6807 130.045 28.69 129.236 28.0476C128.426 27.4052 127.498 27.0795 126.458 27.0795C125.874 27.0795 125.331 27.179 124.843 27.3781C124.354 27.5545 123.965 27.8123 123.676 28.1471V34.9102H123.667Z" fill="#7B7B7B"/>
<path d="M1.18527 41.8721H1.61956L2.47907 44.9166L3.68692 41.8721H3.77288L4.96716 44.9166L5.84025 41.8721H6.27001L5.06215 46.0973H4.98525L3.73669 42.9035L2.46098 46.0973H2.38408L1.18527 41.8721Z" fill="#7B7B7B"/>
<path d="M11.2054 41.7681H11.608V43.5323C11.7709 43.3197 11.9473 43.1569 12.1418 43.0528C12.3364 42.9442 12.549 42.8945 12.7752 42.8945C13.0059 42.8945 13.214 42.9533 13.3949 43.0709C13.5759 43.1885 13.7071 43.3469 13.793 43.5504C13.879 43.7495 13.9197 44.0661 13.9197 44.4914V46.0973H13.5171V44.609C13.5171 44.2516 13.5035 44.0073 13.4718 43.8897C13.4221 43.6816 13.3316 43.5278 13.2004 43.4238C13.0692 43.3197 12.8973 43.2654 12.6847 43.2654C12.4404 43.2654 12.2233 43.3469 12.0333 43.5052C11.8433 43.668 11.7166 43.8671 11.6533 44.1023C11.6171 44.2561 11.5945 44.5366 11.5945 44.9528V46.0973H11.1918V41.7681H11.2054Z" fill="#7B7B7B"/>
<path d="M21.6282 45.0614L21.9675 45.2378C21.8589 45.455 21.7277 45.6314 21.583 45.7671C21.4382 45.9028 21.2753 46.0024 21.0944 46.0747C20.9134 46.1426 20.7053 46.1788 20.4792 46.1788C19.9725 46.1788 19.5744 46.0114 19.2849 45.6766C18.9999 45.3419 18.8551 44.9664 18.8551 44.5457C18.8551 44.1476 18.9773 43.7948 19.217 43.4871C19.5246 43.0936 19.9363 42.8945 20.452 42.8945C20.9813 42.8945 21.4065 43.0981 21.7232 43.5007C21.9494 43.7857 22.0625 44.1431 22.067 44.5683H19.2623C19.2713 44.9302 19.3844 45.2288 19.6106 45.4595C19.8323 45.6902 20.1082 45.8078 20.4384 45.8078C20.5968 45.8078 20.7506 45.7807 20.8999 45.7264C21.0492 45.6721 21.1758 45.5952 21.2844 45.5047C21.393 45.4143 21.5061 45.265 21.6282 45.0614ZM21.6282 44.22C21.5739 44.0074 21.497 43.8355 21.393 43.7043C21.2889 43.5776 21.1577 43.4736 20.9858 43.3921C20.8184 43.3152 20.642 43.2745 20.4565 43.2745C20.1489 43.2745 19.8865 43.374 19.6694 43.5686C19.5065 43.7133 19.3889 43.9259 19.303 44.2155H21.6282V44.22Z" fill="#7B7B7B"/>
<path d="M26.8894 42.9759H27.2965V43.4328C27.4187 43.2519 27.5453 43.1161 27.6856 43.0302C27.8213 42.9397 27.9615 42.899 28.1108 42.899C28.2239 42.899 28.3415 42.9352 28.4682 43.003L28.2601 43.3423C28.1741 43.3061 28.1063 43.288 28.0475 43.288C27.9118 43.288 27.7851 43.3423 27.6584 43.4554C27.5363 43.564 27.4413 43.7359 27.3734 43.9666C27.3237 44.143 27.2965 44.5049 27.2965 45.0478V46.1064H26.8894V42.9759Z" fill="#7B7B7B"/>
<path d="M35.6474 45.0614L35.9867 45.2378C35.8782 45.455 35.747 45.6314 35.6022 45.7671C35.4574 45.9028 35.2946 46.0024 35.1136 46.0747C34.9327 46.1426 34.7246 46.1788 34.4984 46.1788C33.9917 46.1788 33.5936 46.0114 33.3041 45.6766C33.0191 45.3419 32.8744 44.9664 32.8744 44.5457C32.8744 44.1476 32.9965 43.7948 33.2363 43.4871C33.5439 43.0936 33.9555 42.8945 34.4713 42.8945C35.0005 42.8945 35.4258 43.0981 35.7424 43.5007C35.9686 43.7857 36.0817 44.1431 36.0862 44.5683H33.2815C33.2905 44.9302 33.4036 45.2288 33.6298 45.4595C33.8515 45.6902 34.1274 45.8078 34.4577 45.8078C34.616 45.8078 34.7698 45.7807 34.9191 45.7264C35.0684 45.6721 35.1951 45.5952 35.3036 45.5047C35.4122 45.4143 35.5253 45.265 35.6474 45.0614ZM35.6474 44.22C35.5932 44.0074 35.5162 43.8355 35.4122 43.7043C35.3082 43.5776 35.177 43.4736 35.0051 43.3921C34.8377 43.3152 34.6613 43.2745 34.4758 43.2745C34.1682 43.2745 33.9058 43.374 33.6886 43.5686C33.5258 43.7133 33.4082 43.9259 33.3222 44.2155H35.6474V44.22Z" fill="#7B7B7B"/>
<path d="M49.5264 45.0614L49.8657 45.2378C49.7526 45.455 49.626 45.6314 49.4812 45.7671C49.3364 45.9028 49.1736 46.0024 48.9926 46.0747C48.8117 46.1426 48.6036 46.1788 48.3774 46.1788C47.8707 46.1788 47.4726 46.0114 47.1831 45.6766C46.8981 45.3419 46.7534 44.9664 46.7534 44.5457C46.7534 44.1476 46.8755 43.7948 47.1153 43.4871C47.4229 43.0936 47.8345 42.8945 48.3502 42.8945C48.8795 42.8945 49.3048 43.0981 49.6214 43.5007C49.8476 43.7857 49.9607 44.1431 49.9652 44.5683H47.1605C47.1695 44.9302 47.2826 45.2288 47.5088 45.4595C47.7305 45.6902 48.011 45.8078 48.3367 45.8078C48.495 45.8078 48.6488 45.7807 48.7981 45.7264C48.9474 45.6721 49.0741 45.5952 49.1826 45.5047C49.2912 45.4143 49.4043 45.265 49.5264 45.0614ZM49.5264 44.22C49.4722 44.0074 49.3952 43.8355 49.2912 43.7043C49.1871 43.5776 49.056 43.4736 48.8841 43.3921C48.7167 43.3152 48.5403 43.2745 48.3548 43.2745C48.0472 43.2745 47.7848 43.374 47.5676 43.5686C47.4048 43.7133 47.2872 43.9259 47.2057 44.2155H49.5264V44.22Z" fill="#7B7B7B"/>
<path d="M54.584 42.9759H55.0635L55.8914 44.1204L56.7102 42.9759H57.1942L56.1357 44.4506L57.3299 46.0973H56.8414L55.8914 44.7854L54.9504 46.0973H54.4709L55.6516 44.4506L54.584 42.9759Z" fill="#7B7B7B"/>
<path d="M61.9804 42.9759H62.383V43.5505C62.5414 43.3333 62.7223 43.1705 62.9304 43.0574C63.1385 42.9488 63.3647 42.8945 63.618 42.8945C64.0613 42.8945 64.4368 43.0529 64.7535 43.374C65.0702 43.6952 65.224 44.0798 65.224 44.5276C65.224 44.989 65.0702 45.3781 64.758 45.6993C64.4459 46.0205 64.0704 46.1788 63.6316 46.1788C63.3828 46.1788 63.1566 46.129 62.9485 46.025C62.7404 45.9209 62.5504 45.7671 62.383 45.5636V47.2419H61.9804V42.9759ZM63.5818 43.2836C63.2335 43.2836 62.944 43.4057 62.7042 43.6455C62.469 43.8898 62.3468 44.1928 62.3468 44.5502C62.3468 44.7855 62.4011 45.0026 62.5052 45.1881C62.6092 45.3781 62.763 45.5274 62.9575 45.6405C63.1566 45.7536 63.3647 45.8078 63.5818 45.8078C63.799 45.8078 63.998 45.7536 64.188 45.6405C64.378 45.5274 64.5273 45.3736 64.6404 45.17C64.7535 44.9709 64.8078 44.7583 64.8078 44.5412C64.8078 44.3195 64.7535 44.1069 64.6404 43.9078C64.5273 43.7088 64.378 43.555 64.1925 43.4464C64.0116 43.3379 63.808 43.2836 63.5818 43.2836Z" fill="#7B7B7B"/>
<path d="M72.8194 45.0614L73.1587 45.2378C73.0456 45.455 72.9189 45.6314 72.7742 45.7671C72.6294 45.9028 72.4665 46.0024 72.2856 46.0747C72.1046 46.1426 71.8965 46.1788 71.6704 46.1788C71.1637 46.1788 70.7656 46.0114 70.4806 45.6766C70.1956 45.3419 70.0508 44.9664 70.0508 44.5457C70.0508 44.1476 70.173 43.7948 70.4127 43.4871C70.7204 43.0936 71.132 42.8945 71.6477 42.8945C72.177 42.8945 72.6023 43.0981 72.9189 43.5007C73.1451 43.7857 73.2582 44.1431 73.2627 44.5683H70.458C70.467 44.9302 70.5801 45.2288 70.8063 45.4595C71.0325 45.6902 71.3039 45.8078 71.6342 45.8078C71.7925 45.8078 71.9463 45.7807 72.0956 45.7264C72.2449 45.6721 72.3715 45.5952 72.4801 45.5047C72.5842 45.4143 72.6973 45.265 72.8194 45.0614ZM72.8194 44.22C72.7651 44.0074 72.6882 43.8355 72.5842 43.7043C72.4801 43.5776 72.3444 43.4736 72.177 43.3921C72.0096 43.3152 71.8332 43.2745 71.6477 43.2745C71.3401 43.2745 71.0777 43.374 70.8606 43.5686C70.7023 43.7133 70.5801 43.9259 70.4942 44.2155H72.8194V44.22Z" fill="#7B7B7B"/>
<path d="M78.0761 42.9759H78.4877V43.4328C78.6099 43.2519 78.7366 43.1161 78.8723 43.0302C79.008 42.9397 79.1482 42.899 79.2975 42.899C79.4061 42.899 79.5282 42.9352 79.6549 43.003L79.4468 43.3423C79.3608 43.3061 79.293 43.288 79.2342 43.288C79.103 43.288 78.9718 43.3423 78.8497 43.4554C78.723 43.564 78.6325 43.7359 78.5646 43.9666C78.5149 44.143 78.4923 44.5049 78.4923 45.0478V46.1064H78.0806V42.9759H78.0761Z" fill="#7B7B7B"/>
<path d="M84.5631 41.8132H84.9657V42.9713H85.6036V43.3196H84.9657V46.0972H84.5631V43.3196H84.0157V42.9713H84.5631V41.8132Z" fill="#7B7B7B"/>
<path d="M91.9912 43.3152L91.7333 43.5821C91.5207 43.374 91.3081 43.2699 91.1045 43.2699C90.9733 43.2699 90.8647 43.3107 90.7697 43.4011C90.6747 43.4871 90.6295 43.5866 90.6295 43.7042C90.6295 43.8038 90.6657 43.9033 90.7426 43.9937C90.8195 44.0887 90.9778 44.1973 91.2266 44.324C91.5252 44.4778 91.7288 44.6271 91.8328 44.7718C91.9369 44.9166 91.9912 45.0795 91.9912 45.2649C91.9912 45.5228 91.9007 45.7399 91.7197 45.9164C91.5388 46.0928 91.3171 46.1833 91.0457 46.1833C90.8647 46.1833 90.6928 46.1425 90.53 46.0656C90.3671 45.9887 90.2314 45.8802 90.1228 45.7399L90.3762 45.4549C90.5797 45.6856 90.7969 45.8033 91.0276 45.8033C91.1859 45.8033 91.3262 45.749 91.4392 45.6495C91.5523 45.5454 91.6066 45.4233 91.6066 45.283C91.6066 45.1699 91.5704 45.0659 91.4935 44.9754C91.4166 44.8849 91.2493 44.7764 90.9869 44.6407C90.7064 44.4959 90.5164 44.3511 90.4124 44.2109C90.3128 44.0707 90.2585 43.9078 90.2585 43.7268C90.2585 43.4916 90.34 43.2926 90.5028 43.1342C90.6657 42.9759 90.8693 42.899 91.1135 42.899C91.4121 42.8945 91.7016 43.0347 91.9912 43.3152Z" fill="#7B7B7B"/>
<path d="M102.767 42.9759H103.169V43.5143C103.31 43.3152 103.45 43.1705 103.599 43.08C103.803 42.9579 104.015 42.8945 104.237 42.8945C104.386 42.8945 104.531 42.9262 104.667 42.985C104.803 43.0438 104.911 43.1252 104.997 43.2202C105.083 43.3198 105.16 43.46 105.223 43.6455C105.354 43.4012 105.522 43.2157 105.721 43.089C105.92 42.9624 106.137 42.899 106.368 42.899C106.585 42.899 106.775 42.9533 106.938 43.0619C107.101 43.1705 107.223 43.3243 107.304 43.5188C107.386 43.7133 107.426 44.0074 107.426 44.3964V46.1019H107.015V44.3964C107.015 44.0617 106.992 43.8309 106.942 43.7043C106.893 43.5776 106.811 43.4781 106.698 43.4012C106.585 43.3243 106.445 43.2881 106.286 43.2881C106.092 43.2881 105.915 43.3469 105.753 43.46C105.59 43.5731 105.472 43.7269 105.4 43.9214C105.327 44.1114 105.287 44.4326 105.287 44.8805V46.1019H104.884V44.5005C104.884 44.125 104.861 43.8671 104.812 43.7314C104.766 43.5957 104.685 43.4871 104.567 43.4057C104.45 43.3243 104.314 43.2836 104.151 43.2836C103.966 43.2836 103.794 43.3379 103.631 43.4509C103.468 43.564 103.35 43.7133 103.274 43.9033C103.197 44.0933 103.156 44.3828 103.156 44.7719V46.0974H102.753V42.9759H102.767Z" fill="#7B7B7B"/>
<path d="M115.117 45.0614L115.456 45.2378C115.343 45.455 115.216 45.6314 115.072 45.7671C114.927 45.9028 114.764 46.0024 114.583 46.0747C114.402 46.1426 114.194 46.1788 113.968 46.1788C113.461 46.1788 113.063 46.0114 112.778 45.6766C112.493 45.3419 112.348 44.9664 112.348 44.5457C112.348 44.1476 112.47 43.7948 112.71 43.4871C113.018 43.0936 113.429 42.8945 113.945 42.8945C114.474 42.8945 114.9 43.0981 115.216 43.5007C115.443 43.7857 115.556 44.1431 115.56 44.5683H112.755C112.764 44.9302 112.878 45.2288 113.104 45.4595C113.325 45.6902 113.601 45.8078 113.932 45.8078C114.09 45.8078 114.244 45.7807 114.393 45.7264C114.542 45.6721 114.669 45.5952 114.778 45.5047C114.877 45.4143 114.995 45.265 115.117 45.0614ZM115.117 44.22C115.063 44.0074 114.986 43.8355 114.882 43.7043C114.778 43.5776 114.646 43.4736 114.474 43.3921C114.307 43.3152 114.131 43.2745 113.945 43.2745C113.638 43.2745 113.375 43.374 113.158 43.5686C112.995 43.7133 112.878 43.9259 112.796 44.2155H115.117V44.22Z" fill="#7B7B7B"/>
<path d="M123.147 45.0614L123.486 45.2378C123.373 45.455 123.246 45.6314 123.101 45.7671C122.957 45.9028 122.794 46.0024 122.613 46.0747C122.432 46.1426 122.224 46.1788 121.997 46.1788C121.491 46.1788 121.093 46.0114 120.808 45.6766C120.523 45.3419 120.378 44.9664 120.378 44.5457C120.378 44.1476 120.5 43.7948 120.74 43.4871C121.048 43.0936 121.459 42.8945 121.975 42.8945C122.504 42.8945 122.929 43.0981 123.246 43.5007C123.472 43.7857 123.585 44.1431 123.59 44.5683H120.785C120.794 44.9302 120.907 45.2288 121.133 45.4595C121.355 45.6902 121.631 45.8078 121.961 45.8078C122.12 45.8078 122.273 45.7807 122.423 45.7264C122.572 45.6721 122.699 45.5952 122.807 45.5047C122.911 45.4143 123.024 45.265 123.147 45.0614ZM123.147 44.22C123.092 44.0074 123.015 43.8355 122.911 43.7043C122.807 43.5776 122.676 43.4736 122.504 43.3921C122.337 43.3152 122.16 43.2745 121.975 43.2745C121.667 43.2745 121.405 43.374 121.188 43.5686C121.025 43.7133 120.907 43.9259 120.826 44.2155H123.147V44.22Z" fill="#7B7B7B"/>
<path d="M128.91 41.8132H129.312V42.9713H129.95V43.3196H129.312V46.0972H128.91V43.3196H128.362V42.9713H128.91V41.8132Z" fill="#7B7B7B"/>
<path d="M167.941 30.8884H149.208L147.647 33.4624H168.787L167.941 30.8884Z" fill="#7B7B7B"/>
<path d="M170.596 38.9723H144.241L142.662 41.5464H171.442L170.596 38.9723Z" fill="#7B7B7B"/>
<path d="M173.261 47.0926L132.637 47.0791V57.7778L137.6 49.6667H174.107L173.261 47.0926Z" fill="#7B7B7B"/>
<path d="M151.266 9.72613L144.829 25.3784H146.847L154.424 11.3728L151.266 9.72613Z" fill="#7B7B7B"/>
<path d="M143.313 5.57336L138.414 25.3785H140.387L146.856 7.42358L143.313 5.57336Z" fill="#7B7B7B"/>
<path d="M132.637 0V25.3784H134.162L137.102 2.32975L132.637 0Z" fill="#7B7B7B"/>
<path d="M156.708 22.8044L162.06 15.3583L159.545 14.0464L152.592 25.3784H166.131L165.286 22.8044H156.708Z" fill="#7B7B7B"/>
</svg>
