<svg width="201" height="83" viewBox="0 0 201 83" fill="none" xmlns="http://www.w3.org/2000/svg">
<path d="M181.153 61.4711C183.306 61.4711 185.051 59.7259 185.051 57.5731C185.051 55.4203 183.306 53.6752 181.153 53.6752C179 53.6752 177.255 55.4203 177.255 57.5731C177.255 59.7259 179 61.4711 181.153 61.4711Z" fill="#FFFF00"/>
<path d="M69.991 17.8738C67.3995 18.7442 64.0471 18.1071 62.1376 16.1114C61.3426 15.2536 60.3878 14.6578 59.2949 14.2486C58.0117 13.8286 56.6783 13.6581 55.3287 13.7927C54.0222 13.9399 52.7283 14.306 51.5851 14.9718C49.489 16.1042 46.0361 16.9998 44.1014 15.0831C43.4267 14.4047 42.558 14.0476 41.623 13.9273C40.4242 13.8125 39.2613 14.0386 38.1378 14.455C36.9139 14.927 35.8281 15.6574 34.8429 16.5116C33.8935 17.4 33.0572 18.3888 32.4722 19.5518C31.9643 20.6285 31.6574 21.7071 31.6753 22.9059C31.722 23.832 32.0773 24.7239 32.7306 25.3915C33.4484 26.0753 34.2991 26.3768 35.2682 26.5024C36.4706 26.6065 37.6587 26.3445 38.7731 25.9066C39.9684 25.3951 41.0559 24.7078 42.0214 23.8302C44.1409 21.8812 47.3605 21.5797 49.5482 23.5412C50.3791 24.3955 51.4577 24.9698 52.5937 25.3126C54.2807 25.8204 55.6984 25.6894 56.6065 25.5835C63.3203 24.7903 66.7068 24.4206 68.1245 25.763C69.0811 26.6729 69.3951 28.1373 69.2444 29.268C69.0901 30.404 68.4512 31.4789 67.3546 32.2686C64.878 33.7815 61.4359 33.1587 59.4474 31.1128C58.5663 30.1886 57.4536 29.4815 56.2386 29.0885C54.9195 28.6955 53.5861 28.5968 52.233 28.8731C50.9588 29.1585 49.8425 29.7471 48.8626 30.605C46.8419 32.3727 43.5002 33.0708 41.3826 31.0375C40.5175 30.2801 39.5951 29.7992 38.4573 29.6C37.2585 29.4331 36.0435 29.6843 34.9631 30.2119C33.8163 30.7952 32.9352 31.6602 32.1653 32.6742C31.399 33.7689 30.9395 34.9857 30.6757 36.2904C30.446 37.6041 30.5375 38.95 30.9341 40.2207C31.3397 41.3244 31.9104 42.3132 32.8078 43.0939C33.6423 43.8081 34.6455 44.246 35.733 44.3842C36.8995 44.5116 38.0445 44.2532 39.0908 43.7399C40.1712 43.1567 41.0129 42.3635 41.7576 41.3943C43.5918 39.0595 46.8472 38.7706 49.0708 40.7752C51.2351 42.7637 51.6838 46.0479 50.0507 48.4975C48.344 50.8037 45.1405 50.967 42.9726 49.219C42.0232 48.4599 40.9554 47.9484 39.7566 47.742C38.6045 47.5787 37.4541 47.8048 36.4545 48.3935C35.489 49.0323 34.7639 49.8866 34.3063 50.9544C33.8217 52.1227 33.6638 53.3844 33.7715 54.6424C33.8935 56.0279 34.3619 57.3541 35.0529 58.5565C35.724 59.6477 36.5604 60.6042 37.6138 61.34C38.337 61.8838 39.0029 62.5675 39.5502 63.3446C39.5502 63.3446 39.5538 63.3482 39.5574 63.3518C40.0132 63.9997 40.3865 64.7104 40.6414 65.4551C40.6414 65.4659 40.645 65.4713 40.6485 65.482C41.1995 67.379 40.7239 69.2652 39.3313 70.114C37.9027 70.9844 35.9484 70.4999 34.5001 69.0588C34.4839 69.0462 34.4714 69.0319 34.457 69.0157C34.2937 68.8416 34.1358 68.6622 33.985 68.4791C33.9653 68.4522 33.9456 68.4271 33.9258 68.4001C32.7378 66.8926 32.045 64.9849 32.3178 63.0772C32.4847 61.882 32.4524 60.6598 32.2855 59.4646C32.0719 58.1061 31.6107 56.7691 30.9323 55.5738C30.3365 54.5455 29.6546 53.5423 28.7142 52.7939C27.9353 52.2107 27.1385 51.8302 26.1568 51.7889C25.2397 51.8158 24.4609 52.2771 23.8866 52.977C23.2315 53.8097 22.9211 54.8434 22.7757 55.8825C22.546 57.3003 21.5338 60.2381 19.6512 58.5386C17.8566 56.6955 17.3128 53.6715 17.5874 51.1823C17.7579 49.6892 18.9064 46.4588 20.8662 48.2912C21.453 48.826 22.1565 49.1095 22.9534 49.0647C23.8704 48.966 24.6242 48.4688 25.2649 47.8389C26.0635 47.0295 26.6109 46.0317 27.0505 44.9926C27.5315 43.7705 27.8204 42.5142 27.9586 41.2059C28.0663 39.8833 27.9855 38.5732 27.6733 37.2828C27.3951 36.2868 26.9788 35.3841 26.2591 34.6303C25.64 34.0973 24.9257 33.7133 24.0804 33.8084C23.0916 33.9663 22.345 34.467 21.6433 35.1544C20.8142 36.0068 20.2668 37.0675 19.8253 38.155C19.5112 38.9482 17.7292 42.8911 16.4227 41.3585C15.7963 40.5921 15.7802 38.2735 16.4514 35.6802C16.8606 34.0991 17.4474 32.7334 18.0504 31.8217C18.0612 31.8056 18.0737 31.7858 18.0827 31.7697C18.5242 31.1505 19.0195 30.6696 19.5041 30.6498C19.7535 30.6373 19.9994 30.7485 20.2309 31.0267C20.6365 31.5023 21.2664 31.6189 21.8586 31.4879C22.7847 31.2977 23.6012 30.7108 24.3191 30.1258C25.2595 29.3128 26.0294 28.3634 26.7598 27.3656C27.5136 26.2906 28.1291 25.1295 28.6262 23.9163C29.0587 22.8395 29.3495 21.7251 29.4248 20.5657C29.4482 19.8586 29.362 19.0403 28.8685 18.4893C28.4288 18.0173 27.7845 17.9384 27.1815 18.0837C26.4188 18.2668 25.7315 18.6957 25.1123 19.1839C24.9741 19.2915 24.8413 19.4028 24.7103 19.5141C24.0122 20.1458 23.3966 20.8403 22.8313 21.5815C22.6537 21.8112 22.485 22.0427 22.3163 22.2796C21.7635 23.0585 21.2054 23.8284 20.5809 24.5552C20.518 24.627 20.4373 24.7293 20.3422 24.8442C20.335 24.8513 20.3296 24.8567 20.3224 24.8639C19.5597 25.6733 18.9764 26.0555 18.7862 25.8366C18.7862 25.8366 18.785 25.8342 18.7826 25.8294C18.7826 25.8294 18.7754 25.8133 18.7736 25.8061C18.7647 25.7828 18.7539 25.763 18.7378 25.7433V25.7397C18.7144 25.6517 18.7144 25.5333 18.7413 25.379C18.7683 25.2282 18.8167 25.0487 18.8885 24.8477C18.9118 24.7796 18.937 24.7096 18.9675 24.6378C19.2492 23.8912 19.6458 23.0728 20.143 22.2401C20.1501 22.2312 20.1519 22.2204 20.1627 22.2114C20.3924 21.8543 20.6634 21.4487 21.008 20.9372C21.13 20.7578 21.2574 20.5603 21.3974 20.3504C21.9376 19.541 22.5209 18.7549 23.1526 18.0155C23.5456 17.5579 24.1253 16.7378 24.7713 16.6337L24.8988 16.6696C24.9113 16.6857 24.9257 16.7019 24.9382 16.718C25.1769 17.0392 25.7602 16.7808 26.0455 16.6696C26.9267 16.2855 27.7253 15.7597 28.5114 15.2123C29.5361 14.4855 30.5124 13.6922 31.4528 12.8613C32.3824 12.016 33.3031 11.1618 34.1412 10.2286C35.1013 9.15718 35.3597 8.6493 35.9071 7.96195C37.6946 5.72582 39.9684 4.65083 41.4167 3.96528C43.7551 2.85798 45.8512 2.46855 47.4072 2.17962C48.5181 1.97682 48.9201 1.96964 50.7739 1.6161C52.5434 1.28229 52.9724 1.23204 54.5247 0.865937C55.711 0.587767 56.9457 0.453165 58.1643 0.469317C59.18 0.485468 60.5458 0.528536 61.3551 1.23921C62.7496 2.57263 58.6237 3.84325 57.8538 4.03707C56.6263 4.34754 55.3574 4.53419 54.0904 4.54495C53.0459 4.55393 51.5618 4.5611 50.747 3.79838C50.2337 3.31023 49.48 3.17564 48.7944 3.13615C47.6818 3.0877 46.5745 3.27435 45.4959 3.5579C43.8951 3.97785 42.7644 4.53957 41.9299 4.94695C40.6162 5.58226 39.7351 6.01476 38.7498 6.89234C37.4272 8.06424 37.2064 8.88619 37.1382 9.23794C37.079 9.54662 36.8493 10.3901 37.3679 10.9088C37.8992 11.4453 38.6888 11.5674 39.4084 11.6158C40.575 11.6589 41.7505 11.4364 42.8667 11.108C44.1337 10.7437 45.3397 10.2178 46.5027 9.59866C48.606 8.52188 51.9763 7.71608 53.8679 9.64173C54.5822 10.3793 55.5046 10.8083 56.4683 11.1223C57.7353 11.5153 59.0759 11.6392 60.3986 11.6302C61.7015 11.5943 62.9757 11.4148 64.2302 11.0595C66.8378 10.2824 70.113 10.9967 71.9238 13.0803C73.4869 15.101 72.1894 17.1649 69.9981 17.8791L69.991 17.8738Z" fill="#009EFF"/>
<path d="M75.1526 8.13966C73.8425 8.16478 72.5127 7.96917 71.2528 7.61562C70.054 7.27823 68.638 6.77932 67.7981 5.80483C66.0699 3.84508 69.6107 3.22233 70.8921 3.23669C73.1892 3.31027 76.3424 3.90968 77.9091 5.77252C79.4543 7.59409 76.3604 8.10377 75.1508 8.14145L75.1526 8.13966Z" fill="#009EFF"/>
<path d="M30.7261 72.7271C30.8105 73.4521 30.8697 74.4338 30.2775 74.9794C29.6386 75.5662 28.6767 75.1355 28.0575 74.7461C25.9434 73.3983 24.2457 70.6202 23.9191 68.1418C23.8078 67.327 23.7396 66.2341 24.3821 65.6006C25.0748 64.9168 26.1193 65.3583 26.7887 65.8411C28.8597 67.3306 30.4211 70.2038 30.7261 72.7271Z" fill="#009EFF"/>
<path d="M85.7265 22.2814C83.1027 22.5291 80.2169 20.9068 78.713 18.8142C78.1316 17.9833 77.6506 16.8903 77.9934 15.8728C78.3433 14.8355 79.404 14.4496 80.4054 14.3581C83.0848 14.1679 85.809 15.9805 87.2376 18.1376C87.7239 18.9003 88.0972 19.8784 87.8478 20.7865C87.5786 21.7646 86.6436 22.1486 85.7265 22.2814Z" fill="#009EFF"/>
<path d="M54.9699 65.8589C53.6562 68.2422 50.6986 68.1525 48.6258 66.8262C46.2569 65.308 44.7207 62.3289 45.7759 59.5813C46.9568 56.7691 50.4348 57.3308 52.4592 58.7163C54.5499 60.2632 56.1543 63.2998 54.9699 65.8607V65.8589Z" fill="#009EFF"/>
<path d="M83.8153 34.0059C81.2938 35.0037 78.2734 33.4226 76.6887 31.4682C75.1848 29.4905 74.8313 26.5707 77.4874 25.4293C80.1596 24.4799 83.0992 26.2207 84.6229 28.3653C85.8037 30.2228 86.2183 32.9237 83.8153 34.0041V34.0059Z" fill="#FFFF00"/>
<path d="M67.9542 62.1422C65.5817 62.1422 63.4909 61.6325 61.6801 60.6114C59.8675 59.5902 58.4462 58.185 57.4143 56.3958C56.3823 54.6065 55.8655 52.5481 55.8655 50.2204C55.8655 47.8928 56.3805 45.8343 57.4143 44.045C58.4462 42.2558 59.8675 40.8506 61.6801 39.8294C63.4909 38.8083 65.5835 38.2986 67.9542 38.2986C69.4258 38.2986 70.7592 38.5121 71.9562 38.9411C73.1533 39.37 74.2013 39.9568 75.1023 40.7034C76.0032 41.45 76.7497 42.306 77.342 43.2733L72.9612 45.9079C72.631 45.3802 72.1985 44.9083 71.6601 44.4919C71.1217 44.0755 70.5349 43.7507 69.8978 43.521C69.2607 43.2895 68.6128 43.1746 67.9542 43.1746C66.6585 43.1746 65.5117 43.4707 64.5121 44.0648C63.5124 44.657 62.7282 45.4861 62.1575 46.5522C61.5868 47.6182 61.3015 48.8421 61.3015 50.224C61.3015 51.6059 61.576 52.8316 62.1252 53.8958C62.6743 54.9618 63.464 55.8017 64.4977 56.4155C65.5296 57.0311 66.7267 57.338 68.0888 57.338C69.0328 57.338 69.8888 57.1621 70.6587 56.8103C71.4268 56.4586 72.0424 55.9758 72.5036 55.3603C72.9648 54.7465 73.2394 54.0215 73.3274 53.1869H68.1229V49.1023H78.4331V52.2322C78.3882 54.384 77.9055 56.2019 76.983 57.6843C76.0606 59.1667 74.8259 60.2812 73.2771 61.0277C71.7283 61.7743 69.9552 62.1476 67.9578 62.1476L67.9542 62.1422Z" fill="white"/>
<path d="M80.7679 61.7456V38.688H85.906V61.7456H80.7679Z" fill="white"/>
<path d="M97.2373 62.1423C95.5019 62.1423 93.9764 61.7744 92.6592 61.0386C91.3419 60.3028 90.3046 59.287 89.5473 57.9913C88.7899 56.6955 88.4113 55.2024 88.4113 53.5118C88.4113 51.8213 88.7845 50.3281 89.5311 49.0324C90.2777 47.7367 91.3096 46.7209 92.6269 45.9851C93.9441 45.2493 95.4588 44.8814 97.1727 44.8814C98.8866 44.8814 100.407 45.2493 101.735 45.9851C103.063 46.7209 104.095 47.7367 104.83 49.0324C105.566 50.3281 105.934 51.8213 105.934 53.5118C105.934 55.2024 105.566 56.6955 104.83 57.9913C104.095 59.287 103.068 60.3028 101.751 61.0386C100.434 61.7744 98.9297 62.1423 97.2373 62.1423ZM97.2373 57.399C97.9175 57.399 98.5097 57.2339 99.0158 56.9055C99.5201 56.5753 99.9221 56.1212 100.218 55.538C100.514 54.9565 100.663 54.2817 100.663 53.5118C100.663 52.7419 100.514 52.069 100.218 51.4857C99.9221 50.9042 99.5093 50.4484 98.9835 50.1182C98.4559 49.7898 97.8529 49.6246 97.1727 49.6246C96.4925 49.6246 95.8877 49.7898 95.3601 50.1182C94.8325 50.4484 94.4215 50.9042 94.1254 51.4857C93.8293 52.0672 93.6803 52.7437 93.6803 53.5118C93.6803 54.2799 93.8293 54.9565 94.1254 55.538C94.4215 56.1195 94.8397 56.5753 95.3763 56.9055C95.9147 57.2339 96.5338 57.399 97.2373 57.399Z" fill="white"/>
<path d="M112.784 61.7456L106.098 45.2762H111.401L115.354 55.8825L119.274 45.2762H124.577L117.89 61.7456H112.784Z" fill="white"/>
<path d="M133.767 62.1423C132.055 62.1423 130.539 61.7798 129.221 61.0547C127.904 60.3297 126.872 59.3193 126.126 58.0236C125.379 56.7278 125.006 55.2239 125.006 53.51C125.006 51.7962 125.379 50.294 126.126 48.9965C126.872 47.7008 127.91 46.6904 129.238 45.9654C130.566 45.2403 132.098 44.8778 133.832 44.8778C135.413 44.8778 136.824 45.2511 138.064 45.9977C139.304 46.7442 140.293 47.8587 141.028 49.3411C141.764 50.8235 142.132 52.6522 142.132 54.8255H130.34C130.449 55.7928 130.833 56.5555 131.492 57.1155C132.15 57.6754 132.953 57.9554 133.897 57.9554C134.71 57.9554 135.39 57.7741 135.939 57.4116C136.488 57.0491 136.883 56.5825 137.125 56.0118L141.637 57.5928C141.219 58.6032 140.61 59.4539 139.808 60.1448C139.006 60.8358 138.083 61.3419 137.041 61.6595C135.998 61.9772 134.905 62.1369 133.764 62.1369L133.767 62.1423ZM130.472 51.4031H136.764C136.676 50.766 136.468 50.251 136.138 49.8543C135.81 49.4595 135.424 49.1796 134.986 49.0145C134.546 48.8493 134.106 48.7668 133.669 48.7668C133.231 48.7668 132.813 48.8493 132.351 49.0145C131.89 49.1796 131.485 49.4541 131.133 49.8382C130.781 50.2223 130.562 50.7445 130.474 51.4031H130.472Z" fill="white"/>
<path d="M144.307 61.7457V45.2762H149.149L149.347 47.3849C149.896 46.5935 150.565 45.9797 151.357 45.54C152.148 45.1004 153.036 44.8814 154.025 44.8814C155.343 44.8814 156.452 45.1506 157.353 45.689C158.253 46.2274 158.928 47.0457 159.379 48.1423C159.829 49.2406 160.053 50.6458 160.053 52.3579V61.7457H154.915V53.3126C154.915 52.4351 154.817 51.7369 154.619 51.2219C154.422 50.7068 154.142 50.3282 153.779 50.0859C153.417 49.8454 152.972 49.7126 152.446 49.691C151.457 49.6695 150.711 49.9387 150.206 50.4986C149.7 51.0586 149.449 51.9092 149.449 53.0506V61.7475H144.311L144.307 61.7457Z" fill="white"/>
<path d="M170.265 62.1423C168.311 62.1423 166.855 61.6757 165.9 60.7425C164.946 59.8092 164.468 58.4758 164.468 56.7404V49.5923H161.898V45.278H164.468V40.14H169.606V45.278H173.361V49.5923H169.606V55.4554C169.606 56.1141 169.727 56.5968 169.969 56.9055C170.209 57.2124 170.583 57.3667 171.089 57.3667C171.286 57.3667 171.518 57.3165 171.78 57.2178C172.043 57.1191 172.284 56.9934 172.505 56.8391L174.283 60.5935C173.756 61.0332 173.124 61.4011 172.39 61.6972C171.654 61.9933 170.945 62.1423 170.265 62.1423Z" fill="white"/>
<path d="M62.7503 72.447V65.8215H66.7351V66.6733H63.6779V68.6421H66.4322V69.475H63.6779V71.5951H66.754V72.447H62.7503ZM67.5947 72.447L69.3457 69.9955L67.7177 67.7145H68.7778L69.8379 69.2762L70.8885 67.7145H71.9486L70.3395 70.005L72.0621 72.447H70.9926L69.8379 70.7243L68.6737 72.447H67.5947ZM72.7927 72.447V65.8215H73.6824V68.3865C73.8402 68.1341 74.0421 67.9416 74.2882 67.8091C74.5343 67.6703 74.8182 67.6009 75.14 67.6009C75.5123 67.6009 75.8341 67.6766 76.1055 67.8281C76.3768 67.9795 76.5882 68.2161 76.7396 68.5379C76.891 68.8534 76.9636 69.2699 76.9573 69.7873V72.447H76.0676V70.0239C76.0676 69.5949 76.0171 69.2699 75.9162 69.049C75.8152 68.8219 75.6764 68.6641 75.4997 68.5758C75.3293 68.4875 75.1337 68.4401 74.9129 68.4338C74.5217 68.4338 74.2188 68.5695 74.0042 68.8408C73.7897 69.1121 73.6824 69.4939 73.6824 69.9861V72.447H72.7927ZM78.1456 72.447V67.7145H79.0448V72.447H78.1456ZM78.5999 66.7112C78.4548 66.7112 78.3286 66.6576 78.2213 66.5503C78.114 66.4367 78.0604 66.3074 78.0604 66.1622C78.0604 66.0108 78.114 65.8846 78.2213 65.7836C78.3286 65.6764 78.4548 65.6227 78.5999 65.6227C78.7513 65.6227 78.8775 65.6764 78.9785 65.7836C79.0858 65.8846 79.1394 66.0108 79.1394 66.1622C79.1394 66.3074 79.0858 66.4367 78.9785 66.5503C78.8775 66.6576 78.7513 66.7112 78.5999 66.7112ZM82.814 72.5605C82.4733 72.5605 82.1704 72.4848 81.9054 72.3334C81.6404 72.1756 81.4227 71.9579 81.2523 71.6803L81.2145 72.447H80.3626V65.8215H81.2618V68.4717C81.4321 68.194 81.6467 67.9795 81.9054 67.8281C82.1704 67.6766 82.4733 67.6009 82.814 67.6009C83.2368 67.6009 83.6091 67.705 83.9309 67.9133C84.2527 68.1215 84.5019 68.4117 84.6786 68.784C84.8616 69.15 84.9531 69.5822 84.9531 70.0807C84.9531 70.5729 84.8616 71.0051 84.6786 71.3774C84.5019 71.7497 84.2527 72.04 83.9309 72.2482C83.6091 72.4564 83.2368 72.5605 82.814 72.5605ZM82.5963 71.7466C82.8803 71.7466 83.1295 71.6771 83.3441 71.5383C83.5586 71.3932 83.7258 71.1976 83.8457 70.9515C83.9719 70.6991 84.035 70.4088 84.035 70.0807C84.035 69.7526 83.9751 69.4655 83.8552 69.2194C83.7353 68.967 83.5681 68.7714 83.3535 68.6326C83.139 68.4875 82.8898 68.4149 82.6058 68.4149C82.3471 68.4149 82.1136 68.4875 81.9054 68.6326C81.7035 68.7714 81.5457 68.967 81.4321 69.2194C81.3186 69.4718 81.2618 69.7589 81.2618 70.0807C81.2618 70.4088 81.3186 70.6991 81.4321 70.9515C81.5457 71.1976 81.7035 71.3932 81.9054 71.5383C82.1073 71.6771 82.3376 71.7466 82.5963 71.7466ZM85.993 72.447V67.7145H86.8922V72.447H85.993ZM86.4473 66.7112C86.3022 66.7112 86.176 66.6576 86.0687 66.5503C85.9614 66.4367 85.9078 66.3074 85.9078 66.1622C85.9078 66.0108 85.9614 65.8846 86.0687 65.7836C86.176 65.6764 86.3022 65.6227 86.4473 65.6227C86.5988 65.6227 86.725 65.6764 86.8259 65.7836C86.9332 65.8846 86.9868 66.0108 86.9868 66.1622C86.9868 66.3074 86.9332 66.4367 86.8259 66.5503C86.725 66.6576 86.5988 66.7112 86.4473 66.7112ZM90.0367 72.5605C89.5635 72.5605 89.1975 72.4407 88.9388 72.2009C88.6801 71.9548 88.5507 71.6046 88.5507 71.1503V68.4906H87.7462V67.7145H88.5507V66.238H89.4499V67.7145H90.7939V68.4906H89.4499V71.0178C89.4499 71.2512 89.5067 71.4311 89.6203 71.5573C89.7402 71.6771 89.9105 71.7371 90.1314 71.7371C90.1945 71.7371 90.2639 71.7245 90.3396 71.6992C90.4153 71.674 90.5068 71.6235 90.6141 71.5478L90.9548 72.2482C90.7908 72.3555 90.633 72.4343 90.4816 72.4848C90.3365 72.5353 90.1882 72.5605 90.0367 72.5605ZM91.8993 72.447V67.7145H92.7985V72.447H91.8993ZM92.3537 66.7112C92.2085 66.7112 92.0823 66.6576 91.9751 66.5503C91.8678 66.4367 91.8142 66.3074 91.8142 66.1622C91.8142 66.0108 91.8678 65.8846 91.9751 65.7836C92.0823 65.6764 92.2085 65.6227 92.3537 65.6227C92.5051 65.6227 92.6313 65.6764 92.7323 65.7836C92.8395 65.8846 92.8932 66.0108 92.8932 66.1622C92.8932 66.3074 92.8395 66.4367 92.7323 66.5503C92.6313 66.6576 92.5051 66.7112 92.3537 66.7112ZM96.2554 72.5605C95.7822 72.5605 95.3657 72.4564 95.0061 72.2482C94.6464 72.0337 94.3624 71.7402 94.1542 71.368C93.9523 70.9957 93.8513 70.5666 93.8513 70.0807C93.8513 69.5949 93.9523 69.1658 94.1542 68.7935C94.3561 68.4212 94.6369 68.1309 94.9966 67.9227C95.3563 67.7082 95.7696 67.6009 96.2365 67.6009C96.7034 67.6009 97.1167 67.7082 97.4764 67.9227C97.8361 68.1309 98.1169 68.4212 98.3188 68.7935C98.5207 69.1658 98.6217 69.5949 98.6217 70.0807C98.6217 70.5666 98.5207 70.9957 98.3188 71.368C98.1169 71.7402 97.8361 72.0337 97.4764 72.2482C97.1231 72.4564 96.7161 72.5605 96.2554 72.5605ZM96.2554 71.7371C96.5394 71.7371 96.7918 71.6677 97.0126 71.5289C97.2335 71.3837 97.4039 71.1881 97.5237 70.942C97.6499 70.6959 97.713 70.4088 97.713 70.0807C97.713 69.7526 97.6499 69.4655 97.5237 69.2194C97.4039 68.9733 97.2303 68.7809 97.0032 68.6421C96.776 68.4969 96.5205 68.4244 96.2365 68.4244C95.9462 68.4244 95.6907 68.4969 95.4698 68.6421C95.249 68.7809 95.0755 68.9733 94.9493 69.2194C94.8231 69.4655 94.76 69.7526 94.76 70.0807C94.76 70.4088 94.8231 70.6959 94.9493 70.942C95.0755 71.1881 95.2522 71.3837 95.4793 71.5289C95.7065 71.6677 95.9652 71.7371 96.2554 71.7371ZM99.6068 72.447V67.7145H100.449L100.487 68.4054C100.645 68.1467 100.847 67.948 101.093 67.8091C101.345 67.6703 101.632 67.6009 101.954 67.6009C102.326 67.6009 102.648 67.6766 102.92 67.8281C103.197 67.9795 103.409 68.2161 103.554 68.5379C103.705 68.8534 103.781 69.2699 103.781 69.7873V72.447H102.882V70.0239C102.882 69.5949 102.831 69.2699 102.73 69.049C102.636 68.8219 102.5 68.6641 102.323 68.5758C102.153 68.4875 101.954 68.4401 101.727 68.4338C101.342 68.4338 101.042 68.5695 100.828 68.8408C100.613 69.1121 100.506 69.4939 100.506 69.9861V72.447H99.6068ZM106.607 72.5605C106.272 72.5605 105.972 72.5101 105.707 72.4091C105.449 72.3081 105.228 72.1725 105.045 72.0021C104.868 71.8317 104.736 71.6393 104.647 71.4247L105.423 71.084C105.524 71.2796 105.676 71.4405 105.878 71.5667C106.08 71.6929 106.304 71.756 106.55 71.756C106.821 71.756 107.045 71.7055 107.222 71.6046C107.398 71.5036 107.487 71.3616 107.487 71.1787C107.487 71.002 107.421 70.8632 107.288 70.7622C107.156 70.6612 106.963 70.5792 106.711 70.5161L106.266 70.4025C105.824 70.2826 105.48 70.1028 105.234 69.863C104.994 69.6233 104.874 69.3519 104.874 69.049C104.874 68.5884 105.023 68.2319 105.319 67.9795C105.616 67.7271 106.054 67.6009 106.635 67.6009C106.919 67.6009 107.178 67.6419 107.411 67.724C107.651 67.806 107.853 67.9227 108.017 68.0742C108.187 68.2256 108.307 68.4054 108.376 68.6137L107.619 68.9544C107.544 68.7651 107.414 68.6263 107.231 68.5379C107.048 68.4433 106.834 68.396 106.588 68.396C106.335 68.396 106.136 68.4528 105.991 68.5663C105.846 68.6736 105.774 68.825 105.774 69.0206C105.774 69.1279 105.834 69.232 105.953 69.333C106.08 69.4276 106.263 69.5065 106.502 69.5696L107.014 69.6927C107.323 69.7684 107.578 69.8851 107.78 70.0429C107.982 70.1943 108.134 70.3678 108.235 70.5634C108.335 70.7527 108.386 70.9515 108.386 71.1597C108.386 71.4437 108.307 71.6929 108.149 71.9075C107.998 72.1157 107.787 72.2766 107.515 72.3902C107.25 72.5038 106.947 72.5605 106.607 72.5605ZM113.449 72.5795C113.071 72.5795 112.733 72.5069 112.437 72.3618C112.146 72.2103 111.916 72.0021 111.746 71.7371C111.575 71.4721 111.49 71.1723 111.49 70.8379C111.49 70.5666 111.541 70.3237 111.642 70.1091C111.749 69.8946 111.888 69.699 112.058 69.5223C112.235 69.3393 112.427 69.1752 112.635 69.0301L113.601 68.3676C113.746 68.2666 113.891 68.1625 114.036 68.0552C114.181 67.9416 114.304 67.8154 114.405 67.6766C114.513 67.5315 114.566 67.3706 114.566 67.1939C114.566 66.9668 114.484 66.7869 114.32 66.6544C114.162 66.5219 113.96 66.4556 113.714 66.4556C113.5 66.4556 113.317 66.5251 113.165 66.6639C113.014 66.8027 112.938 66.9762 112.938 67.1844C112.938 67.3611 112.992 67.522 113.099 67.6672C113.213 67.806 113.348 67.9732 113.506 68.1688L114.699 69.598L117.046 72.447H115.948L113.989 70.0902L112.796 68.6515C112.645 68.4559 112.512 68.2792 112.399 68.1215C112.285 67.9637 112.197 67.8091 112.134 67.6577C112.077 67.4999 112.049 67.339 112.049 67.175C112.049 66.891 112.121 66.6386 112.266 66.4178C112.411 66.1906 112.607 66.014 112.853 65.8878C113.105 65.7552 113.383 65.689 113.686 65.689C114.02 65.689 114.32 65.7521 114.585 65.8783C114.85 66.0045 115.058 66.1812 115.21 66.4083C115.361 66.6355 115.437 66.9005 115.437 67.2034C115.437 67.4558 115.371 67.6924 115.238 67.9133C115.106 68.1278 114.923 68.336 114.689 68.5379C114.456 68.7399 114.188 68.9449 113.885 69.1532L113.194 69.6359C113.061 69.7242 112.935 69.8252 112.815 69.9387C112.702 70.046 112.607 70.1691 112.531 70.3079C112.462 70.4467 112.427 70.6171 112.427 70.819C112.427 71.1029 112.525 71.3364 112.721 71.5194C112.916 71.6961 113.172 71.7844 113.487 71.7844C113.796 71.7844 114.09 71.7339 114.367 71.633C114.645 71.5257 114.888 71.3774 115.096 71.1881C115.311 70.9925 115.478 70.7559 115.598 70.4783C115.718 70.2006 115.778 69.8914 115.778 69.5507H116.648C116.648 70.1375 116.51 70.6612 116.232 71.1219C115.961 71.5762 115.585 71.9327 115.106 72.1914C114.626 72.4501 114.074 72.5795 113.449 72.5795ZM123.082 72.5605C122.451 72.5605 121.889 72.4154 121.397 72.1252C120.905 71.8286 120.52 71.4247 120.242 70.9136C119.964 70.3962 119.826 69.8031 119.826 69.1342C119.826 68.4654 119.964 67.8754 120.242 67.3643C120.52 66.8469 120.901 66.443 121.387 66.1528C121.873 65.8562 122.432 65.7079 123.063 65.7079C123.473 65.7079 123.864 65.7836 124.236 65.9351C124.609 66.0802 124.94 66.2853 125.23 66.5503C125.527 66.809 125.754 67.1119 125.912 67.4589L125.079 67.8375C124.959 67.5788 124.795 67.3548 124.586 67.1655C124.378 66.9762 124.142 66.8279 123.877 66.7207C123.618 66.6134 123.347 66.5598 123.063 66.5598C122.621 66.5598 122.227 66.6702 121.879 66.891C121.532 67.1119 121.261 67.4148 121.066 67.7997C120.87 68.1846 120.772 68.6294 120.772 69.1342C120.772 69.639 120.87 70.087 121.066 70.4783C121.267 70.8695 121.542 71.1755 121.889 71.3964C122.242 71.6109 122.643 71.7182 123.091 71.7182C123.381 71.7182 123.656 71.6614 123.914 71.5478C124.173 71.4279 124.403 71.267 124.605 71.0651C124.814 70.8568 124.981 70.6202 125.107 70.3552L125.94 70.7243C125.782 71.084 125.558 71.4027 125.268 71.6803C124.978 71.9579 124.643 72.1756 124.265 72.3334C123.892 72.4848 123.498 72.5605 123.082 72.5605ZM129.013 72.5605C128.54 72.5605 128.123 72.4564 127.764 72.2482C127.404 72.0337 127.12 71.7402 126.912 71.368C126.71 70.9957 126.609 70.5666 126.609 70.0807C126.609 69.5949 126.71 69.1658 126.912 68.7935C127.114 68.4212 127.395 68.1309 127.754 67.9227C128.114 67.7082 128.527 67.6009 128.994 67.6009C129.461 67.6009 129.874 67.7082 130.234 67.9227C130.594 68.1309 130.874 68.4212 131.076 68.7935C131.278 69.1658 131.379 69.5949 131.379 70.0807C131.379 70.5666 131.278 70.9957 131.076 71.368C130.874 71.7402 130.594 72.0337 130.234 72.2482C129.881 72.4564 129.474 72.5605 129.013 72.5605ZM129.013 71.7371C129.297 71.7371 129.549 71.6677 129.77 71.5289C129.991 71.3837 130.161 71.1881 130.281 70.942C130.408 70.6959 130.471 70.4088 130.471 70.0807C130.471 69.7526 130.408 69.4655 130.281 69.2194C130.161 68.9733 129.988 68.7809 129.761 68.6421C129.534 68.4969 129.278 68.4244 128.994 68.4244C128.704 68.4244 128.448 68.4969 128.227 68.6421C128.007 68.7809 127.833 68.9733 127.707 69.2194C127.581 69.4655 127.518 69.7526 127.518 70.0807C127.518 70.4088 127.581 70.6959 127.707 70.942C127.833 71.1881 128.01 71.3837 128.237 71.5289C128.464 71.6677 128.723 71.7371 129.013 71.7371ZM132.364 72.447V67.7145H133.207L133.245 68.4054C133.402 68.1467 133.604 67.948 133.85 67.8091C134.103 67.6703 134.39 67.6009 134.712 67.6009C135.084 67.6009 135.406 67.6766 135.677 67.8281C135.955 67.9795 136.166 68.2161 136.311 68.5379C136.463 68.8534 136.538 69.2699 136.538 69.7873V72.447H135.639V70.0239C135.639 69.5949 135.589 69.2699 135.488 69.049C135.393 68.8219 135.257 68.6641 135.081 68.5758C134.91 68.4875 134.712 68.4401 134.485 68.4338C134.1 68.4338 133.8 68.5695 133.585 68.8408C133.371 69.1121 133.264 69.4939 133.264 69.9861V72.447H132.364ZM138.143 72.447V68.4622H137.301V67.7145H138.143V67.1939C138.143 66.6954 138.263 66.32 138.503 66.0676C138.743 65.8089 139.105 65.6795 139.591 65.6795C139.736 65.6795 139.894 65.7048 140.065 65.7552C140.235 65.7994 140.408 65.8625 140.585 65.9445L140.254 66.6355C140.121 66.5724 140.005 66.5282 139.904 66.503C139.809 66.4714 139.727 66.4556 139.658 66.4556C139.449 66.4556 139.295 66.5251 139.194 66.6639C139.093 66.7964 139.042 67.0046 139.042 67.2886V67.7145H140.348V68.4622H139.042V72.447H138.143ZM143.265 72.5605C142.804 72.5605 142.397 72.4564 142.044 72.2482C141.69 72.0337 141.413 71.7402 141.211 71.368C141.009 70.9957 140.908 70.5666 140.908 70.0807C140.908 69.5949 141.009 69.1658 141.211 68.7935C141.413 68.4212 141.69 68.1309 142.044 67.9227C142.403 67.7082 142.814 67.6009 143.274 67.6009C143.71 67.6009 144.091 67.7113 144.42 67.9322C144.748 68.1467 145.003 68.4559 145.186 68.8597C145.375 69.2573 145.47 69.7274 145.47 70.27H141.826C141.858 70.737 142.012 71.1029 142.29 71.368C142.574 71.6267 142.921 71.756 143.331 71.756C143.647 71.756 143.908 71.6835 144.117 71.5383C144.331 71.3869 144.498 71.1976 144.618 70.9704L145.394 71.3301C145.268 71.5762 145.104 71.7939 144.902 71.9832C144.7 72.1662 144.461 72.3081 144.183 72.4091C143.912 72.5101 143.606 72.5605 143.265 72.5605ZM141.883 69.5602H144.505C144.486 69.3078 144.416 69.0964 144.296 68.926C144.183 68.7493 144.035 68.6137 143.852 68.519C143.675 68.4244 143.476 68.377 143.255 68.377C143.041 68.377 142.833 68.4244 142.631 68.519C142.429 68.6073 142.258 68.7399 142.12 68.9165C141.987 69.0932 141.908 69.3078 141.883 69.5602ZM146.358 72.447V67.7145H147.258V68.5663C147.447 68.2698 147.69 68.0521 147.986 67.9133C148.289 67.7681 148.605 67.6956 148.933 67.6956V68.5474C148.649 68.5474 148.378 68.5916 148.119 68.6799C147.867 68.7619 147.658 68.9008 147.494 69.0964C147.336 69.2857 147.258 69.5444 147.258 69.8725V72.447H146.358ZM151.75 72.5605C151.289 72.5605 150.882 72.4564 150.529 72.2482C150.176 72.0337 149.898 71.7402 149.696 71.368C149.494 70.9957 149.393 70.5666 149.393 70.0807C149.393 69.5949 149.494 69.1658 149.696 68.7935C149.898 68.4212 150.176 68.1309 150.529 67.9227C150.889 67.7082 151.299 67.6009 151.759 67.6009C152.195 67.6009 152.577 67.7113 152.905 67.9322C153.233 68.1467 153.488 68.4559 153.671 68.8597C153.861 69.2573 153.955 69.7274 153.955 70.27H150.311C150.343 70.737 150.497 71.1029 150.775 71.368C151.059 71.6267 151.406 71.756 151.816 71.756C152.132 71.756 152.394 71.6835 152.602 71.5383C152.816 71.3869 152.984 71.1976 153.103 70.9704L153.88 71.3301C153.753 71.5762 153.589 71.7939 153.387 71.9832C153.185 72.1662 152.946 72.3081 152.668 72.4091C152.397 72.5101 152.091 72.5605 151.75 72.5605ZM150.368 69.5602H152.99C152.971 69.3078 152.902 69.0964 152.782 68.926C152.668 68.7493 152.52 68.6137 152.337 68.519C152.16 68.4244 151.961 68.377 151.741 68.377C151.526 68.377 151.318 68.4244 151.116 68.519C150.914 68.6073 150.744 68.7399 150.605 68.9165C150.472 69.0932 150.393 69.3078 150.368 69.5602ZM154.844 72.447V67.7145H155.686L155.724 68.4054C155.882 68.1467 156.084 67.948 156.33 67.8091C156.582 67.6703 156.869 67.6009 157.191 67.6009C157.563 67.6009 157.885 67.6766 158.156 67.8281C158.434 67.9795 158.645 68.2161 158.79 68.5379C158.942 68.8534 159.018 69.2699 159.018 69.7873V72.447H158.118V70.0239C158.118 69.5949 158.068 69.2699 157.967 69.049C157.872 68.8219 157.737 68.6641 157.56 68.5758C157.39 68.4875 157.191 68.4401 156.964 68.4338C156.579 68.4338 156.279 68.5695 156.065 68.8408C155.85 69.1121 155.743 69.4939 155.743 69.9861V72.447H154.844ZM162.307 72.5605C161.834 72.5605 161.414 72.4564 161.048 72.2482C160.682 72.0337 160.395 71.7402 160.187 71.368C159.985 70.9957 159.884 70.5666 159.884 70.0807C159.884 69.5949 159.985 69.1658 160.187 68.7935C160.395 68.4212 160.679 68.1309 161.039 67.9227C161.405 67.7082 161.821 67.6009 162.288 67.6009C162.749 67.6009 163.162 67.7082 163.528 67.9227C163.9 68.1373 164.178 68.4433 164.361 68.8408L163.547 69.1816C163.427 68.9481 163.254 68.7651 163.026 68.6326C162.806 68.5001 162.55 68.4338 162.26 68.4338C161.976 68.4338 161.723 68.5032 161.503 68.6421C161.282 68.7809 161.108 68.9765 160.982 69.2289C160.856 69.475 160.793 69.7589 160.793 70.0807C160.793 70.4025 160.856 70.6865 160.982 70.9326C161.108 71.1787 161.285 71.3743 161.512 71.5194C161.739 71.6582 161.995 71.7276 162.279 71.7276C162.569 71.7276 162.828 71.6551 163.055 71.5099C163.282 71.3585 163.452 71.1566 163.566 70.9042L164.389 71.2354C164.206 71.6519 163.929 71.9769 163.557 72.2103C163.191 72.4438 162.774 72.5605 162.307 72.5605ZM167.371 72.5605C166.91 72.5605 166.503 72.4564 166.15 72.2482C165.796 72.0337 165.519 71.7402 165.317 71.368C165.115 70.9957 165.014 70.5666 165.014 70.0807C165.014 69.5949 165.115 69.1658 165.317 68.7935C165.519 68.4212 165.796 68.1309 166.15 67.9227C166.51 67.7082 166.92 67.6009 167.38 67.6009C167.816 67.6009 168.197 67.7113 168.526 67.9322C168.854 68.1467 169.109 68.4559 169.292 68.8597C169.482 69.2573 169.576 69.7274 169.576 70.27H165.932C165.964 70.737 166.118 71.1029 166.396 71.368C166.68 71.6267 167.027 71.756 167.437 71.756C167.753 71.756 168.014 71.6835 168.223 71.5383C168.437 71.3869 168.604 71.1976 168.724 70.9704L169.5 71.3301C169.374 71.5762 169.21 71.7939 169.008 71.9832C168.806 72.1662 168.567 72.3081 168.289 72.4091C168.018 72.5101 167.712 72.5605 167.371 72.5605ZM165.989 69.5602H168.611C168.592 69.3078 168.522 69.0964 168.403 68.926C168.289 68.7493 168.141 68.6137 167.958 68.519C167.781 68.4244 167.582 68.377 167.361 68.377C167.147 68.377 166.939 68.4244 166.737 68.519C166.535 68.6073 166.364 68.7399 166.226 68.9165C166.093 69.0932 166.014 69.3078 165.989 69.5602ZM172.159 72.5605C171.824 72.5605 171.525 72.5101 171.26 72.4091C171.001 72.3081 170.78 72.1725 170.597 72.0021C170.42 71.8317 170.288 71.6393 170.199 71.4247L170.976 71.084C171.077 71.2796 171.228 71.4405 171.43 71.5667C171.632 71.6929 171.856 71.756 172.102 71.756C172.373 71.756 172.597 71.7055 172.774 71.6046C172.951 71.5036 173.039 71.3616 173.039 71.1787C173.039 71.002 172.973 70.8632 172.84 70.7622C172.708 70.6612 172.515 70.5792 172.263 70.5161L171.818 70.4025C171.376 70.2826 171.032 70.1028 170.786 69.863C170.546 69.6233 170.427 69.3519 170.427 69.049C170.427 68.5884 170.575 68.2319 170.871 67.9795C171.168 67.7271 171.607 67.6009 172.187 67.6009C172.471 67.6009 172.73 67.6419 172.963 67.724C173.203 67.806 173.405 67.9227 173.569 68.0742C173.739 68.2256 173.859 68.4054 173.929 68.6137L173.171 68.9544C173.096 68.7651 172.966 68.6263 172.783 68.5379C172.6 68.4433 172.386 68.396 172.14 68.396C171.887 68.396 171.689 68.4528 171.543 68.5663C171.398 68.6736 171.326 68.825 171.326 69.0206C171.326 69.1279 171.386 69.232 171.506 69.333C171.632 69.4276 171.815 69.5065 172.055 69.5696L172.566 69.6927C172.875 69.7684 173.13 69.8851 173.332 70.0429C173.534 70.1943 173.686 70.3678 173.787 70.5634C173.888 70.7527 173.938 70.9515 173.938 71.1597C173.938 71.4437 173.859 71.6929 173.701 71.9075C173.55 72.1157 173.339 72.2766 173.067 72.3902C172.802 72.5038 172.499 72.5605 172.159 72.5605Z" fill="white"/>
</svg>
