<?xml version="1.0" encoding="utf-8"?>
<!-- Generator: Adobe Illustrator 28.0.0, SVG Export Plug-In . SVG Version: 6.00 Build 0)  -->
<svg version="1.1" id="Layer_1" xmlns="http://www.w3.org/2000/svg" xmlns:xlink="http://www.w3.org/1999/xlink" x="0px" y="0px"
	 viewBox="0 0 1164.7 334.6" style="enable-background:new 0 0 1164.7 334.6;" xml:space="preserve">
<style type="text/css">
	.st0{fill:#073B89;}
	.st1{fill:none;stroke:#725FFC;stroke-width:10;stroke-miterlimit:10;}
	.st2{fill:#9DC1F5;}
	.st3{fill:#6DA1EF;}
</style>
<g>
	<g>
		<path class="st0" d="M467.9,138.5c-2.2,4-5.6,7.2-10.2,9.7c-4.6,2.5-10.3,3.7-17.2,3.7h-12.6v30h-20.4V98.3h33
			c6.7,0,12.3,1.2,16.9,3.5c4.6,2.3,8.1,5.5,10.4,9.5c2.3,4.1,3.5,8.7,3.5,13.9C471.3,130.1,470.2,134.5,467.9,138.5z M447.7,133.1
			c1.9-1.9,2.9-4.5,2.9-7.9c0-3.3-1-6-2.9-7.9s-4.8-2.9-8.7-2.9h-11.1v21.4H439C442.9,135.9,445.8,135,447.7,133.1z"/>
		<path class="st0" d="M565.5,98.3l-29,56v27.6h-20.4v-27.6l-29-56h23.1l16.2,34.9l16.1-34.9H565.5z"/>
		<path class="st0" d="M628.3,181.9l-17.4-31.6H606v31.6h-20.4V98.3h34.2c6.6,0,12.2,1.2,16.9,3.5c4.6,2.3,8.1,5.5,10.4,9.5
			c2.3,4,3.5,8.5,3.5,13.4c0,5.6-1.6,10.5-4.7,14.9c-3.1,4.4-7.8,7.5-13.9,9.3l19.3,33.1H628.3z M606,135.9h12.6
			c3.7,0,6.5-0.9,8.4-2.7c1.9-1.8,2.8-4.4,2.8-7.7c0-3.3-0.9-5.8-2.8-7.7c-1.9-1.9-4.7-2.8-8.4-2.8H606V135.9z"/>
		<path class="st0" d="M727.3,167.2h-31.2l-5,14.8h-21.3L700,98.3h23.6l30.3,83.6h-21.6L727.3,167.2z M722.2,151.7l-10.5-30.9
			l-10.4,30.9H722.2z"/>
		<path class="st0" d="M869.7,98.3v83.6h-20.4v-50.2l-18.7,50.2h-16.4l-18.8-50.3v50.3H775V98.3H799l23.5,57.9l23.2-57.9H869.7z"/>
		<path class="st0" d="M916.6,98.3v83.6h-20.4V98.3H916.6z"/>
		<path class="st0" d="M1018.1,181.9h-20.4l-34.1-51.6v51.6h-20.4V98.3h20.4l34.1,51.8V98.3h20.4V181.9z"/>
		<path class="st0" d="M1099.3,103.5c6.6,3.5,11.7,8.4,15.3,14.7c3.6,6.3,5.4,13.6,5.4,21.9c0,8.2-1.8,15.5-5.4,21.8
			c-3.6,6.4-8.7,11.3-15.4,14.8c-6.6,3.5-14.3,5.2-23.1,5.2h-31.3V98.3h31.3C1085,98.3,1092.7,100,1099.3,103.5z M1092.8,158.1
			c4.3-4.3,6.4-10.3,6.4-18c0-7.7-2.1-13.7-6.4-18c-4.3-4.3-10.3-6.4-18-6.4h-9.7v48.8h9.7C1082.6,164.5,1088.6,162.4,1092.8,158.1z
			"/>
	</g>
	<g>
		<g>
			<g>
				<path class="st1" d="M199.6,311.6"/>
			</g>
		</g>
	</g>
	<g>
		<g>
			<g>
				<path class="st1" d="M199.6,318.2"/>
			</g>
		</g>
	</g>
	<g>
		<path class="st2" d="M178.5,238.5c2.5,0,4.8-1.8,5.3-4.3c0.6-2.9-1.3-5.8-4.2-6.4l-80.3-16.3l20.3-32l-11.4-2.3l-20.3,32l0,0
			l-6.2,9.8l95.8,19.4C177.8,238.5,178.1,238.5,178.5,238.5z"/>
		<path class="st2" d="M178.2,145.9c0.4,0.1,0.7,0.1,1.1,0.1c2.5,0,4.8-1.8,5.3-4.3c0.6-2.9-1.3-5.8-4.2-6.4l-29-5.9l19.6-30.9
			l-11.4-2.3l-19.6,30.9l0,0l-6.2,9.8L178.2,145.9z"/>
		<path class="st2" d="M178.5,191.3c2.5,0,4.8-1.8,5.3-4.3c0.6-2.9-1.3-5.8-4.2-6.4l-53.8-10.9l19.3-30.5l-11.4-2.3l-19.3,30.5l0,0
			l-6.2,9.8l69.2,14C177.8,191.3,178.2,191.3,178.5,191.3z"/>
		<path class="st2" d="M54.4,262c0,0.1-0.1,0.1-0.1,0.2c0.1-0.1,0.2-0.3,0.2-0.4C54.5,261.8,54.5,261.9,54.4,262z"/>
		<path class="st2" d="M54.3,262.3C54.3,262.3,54.3,262.3,54.3,262.3C54.3,262.3,54.3,262.3,54.3,262.3l-1.6,2.6"/>
		<path class="st2" d="M54.6,261.7"/>
		<path class="st2" d="M50.9,267.6l133.8,27.7c0.4,0.1,0.7,0.1,1.1,0.1c2.5,0,4.8-1.8,5.3-4.3c0.6-2.9-1.3-5.8-4.2-6.4L68.1,260.6
			L93,221.3L81.6,219l-27,42.6"/>
		<path class="st2" d="M215.5,16.6c-2.8-0.8-5.6,0.3-7.1,2.7l-42.6,67.1l-0.1,0l-6.2,9.8l21.6,4.4c0.4,0.1,0.7,0.1,1.1,0.1
			c2.5,0,4.8-1.8,5.3-4.3c0.6-2.9-1.3-5.8-4.2-6.4l-6.1-1.2l32.1-50.5V182c1.7-0.6,3.5-1,5.4-1s3.7,0.4,5.4,1V22.6
			C220,19.8,218.2,17.4,215.5,16.6z"/>
	</g>
	<g>
		<circle class="st0" cx="238.3" cy="269.7" r="10.8"/>
	</g>
	<g>
		<circle class="st0" cx="238.3" cy="156.5" r="10.8"/>
	</g>
	<g>
		<circle class="st0" cx="232.7" cy="99.5" r="10.8"/>
	</g>
	<g>
		<circle class="st0" cx="238.4" cy="208.9" r="10.8"/>
	</g>
	<g>
		<path class="st0" d="M243.1,296.6c-2.5,0-4.8-1.8-5.3-4.3c-0.6-2.9,1.3-5.8,4.2-6.4l60.4-12.2l-59-19.7c-6.3-2.1-10.5-7.7-10.5-14
			V210c0-3,2.4-5.4,5.4-5.4c3,0,5.4,2.4,5.4,5.4v29.9c0,1.6,1.2,3.1,3.1,3.7l76,25.4c2.6,0.9,4.3,3.4,4.1,6.1
			c-0.2,2.7-2.2,5-4.9,5.6l-78,15.8C243.8,296.5,243.4,296.6,243.1,296.6z"/>
	</g>
	<g>
		<circle class="st0" cx="263.8" cy="195.5" r="10.8"/>
	</g>
	<g>
		<circle class="st0" cx="263.8" cy="144.7" r="10.8"/>
	</g>
	<g>
		<path class="st0" d="M370,256.8l-20.1-31.7c-1.6-2.5-5-3.3-7.5-1.7c-2.5,1.6-3.3,5-1.7,7.5l15.7,24.7l-84.2-27.5
			c-1.9-0.6-3.1-2.1-3.1-3.7v-28.9c0-3-2.4-5.4-5.4-5.4s-5.4,2.4-5.4,5.4v28.9c0,6.3,4.3,12,10.6,14l91.6,29.9
			c0.8,0.3,1.7,0.4,2.6,0.4c2.5,0,4.9-1.1,6.5-3.2C371.6,263,371.7,259.5,370,256.8z"/>
	</g>
	<g>
		<path class="st0" d="M237.5,293.5"/>
	</g>
	<g>
		<circle class="st0" cx="291.4" cy="215.4" r="10.8"/>
	</g>
	<g>
		<path class="st0" d="M290.3,217.4c-3,0-5.4-2.4-5.4-5.4v-19.8c0-5.3,3.1-10.3,8-12.9l16.3-8.7c2.6-1.4,5.9-0.4,7.3,2.2
			c1.4,2.6,0.4,5.9-2.2,7.3l-16.3,8.7c-1.4,0.7-2.3,2-2.3,3.4V212C295.8,214.9,293.3,217.4,290.3,217.4z"/>
	</g>
	<g>
		<path class="st0" d="M305.9,165.9c-2.5,1.6-5.9,0.8-7.5-1.7l-2.4-3.8l-66.7,35.1c-0.5-3.8-2.3-7.2-5-9.6l34.1-17.9l10.8-5.7
			l25.4-13.4c2.9-1.5,6.6-0.6,8.3,2.2l4.6,7.3C309.2,161,308.5,164.3,305.9,165.9z"/>
	</g>
	<g>
		<path class="st0" d="M263.8,175.4c-3,0-5.4-2.4-5.4-5.4v-22.7c0-3,2.4-5.4,5.4-5.4c3,0,5.4,2.4,5.4,5.4V170
			C269.2,173,266.8,175.4,263.8,175.4z"/>
	</g>
	<g>
		<path class="st0" d="M269.4,98.3L236.4,46c-1.6-2.5-5-3.3-7.5-1.7c-2.5,1.6-3.3,5-1.7,7.5l30.4,48l-13.6,7.2l-1.7-2.6l-7.9-12.3
			c-1.6-2.5-5-3.3-7.5-1.6c-2.5,1.6-3.3,5-1.6,7.5l7.9,12.3l3.9,6.1c1.2,1.9,3.3,2.9,5.4,2.9c1,0,2-0.2,3-0.7l21.6-11.5
			c1.5-0.8,2.7-2.2,3.1-3.9C270.6,101.5,270.4,99.7,269.4,98.3z"/>
	</g>
	<g>
		<path class="st0" d="M242.4,273.3l-6.2,7.1l-17.3,20l-0.5,0.4c-1.1,0.8-2.3,1.2-3.6,1.2c-0.9,0-1.9-0.2-2.8-0.7
			c-2-1-3.3-3.1-3.3-5.4v-84c1.7,0.6,3.5,1,5.4,1s3.7-0.4,5.4-1v71.3l8.5-9.9l6.2-7.1c2-2.3,5.4-2.5,7.6-0.5
			C244.1,267.6,244.4,271,242.4,273.3z"/>
	</g>
	<g>
		<path class="st0" d="M293.7,136.6l-15.1-23c-1.7-2.8-5.4-3.7-8.3-2.2l-33.6,17.4c0,0,0,0,0,0l-0.1,0.1c-0.1,0.1-0.2,0.1-0.3,0.2
			c-0.1,0.1-0.2,0.1-0.3,0.2c0,0,0,0-0.1,0c-0.1,0.1-0.2,0.1-0.3,0.2c-0.1,0.1-0.3,0.2-0.4,0.3c-0.1,0.1-0.2,0.2-0.4,0.4
			c-0.3,0.3-0.5,0.7-0.7,1.1c-0.1,0.1-0.1,0.2-0.1,0.3c0,0,0,0,0,0.1c0,0.1-0.1,0.1-0.1,0.2c0,0,0,0,0,0c0,0.1,0,0.1-0.1,0.2
			c-0.1,0.1-0.1,0.3-0.1,0.5c-0.1,0.3-0.1,0.7-0.1,1l0,0.3c0,0.8,0.2,1.6,0.6,2.4c1.4,2.7,4.7,3.7,7.3,2.3l2.8-1.5l27.4-14.2
			l12.9,19.7c1,1.6,2.8,2.4,4.5,2.4c1,0,2.1-0.3,3-0.9C294.7,142.4,295.4,139.1,293.7,136.6z"/>
	</g>
	<g>
		<g>
			<g>
				<path class="st3" d="M226.8,197.4c0,5-3,9.4-7.2,11.4c-1.6,0.8-3.5,1.2-5.4,1.2s-3.8-0.4-5.4-1.2c-4.3-2-7.2-6.4-7.2-11.4
					c0-5,3-9.4,7.2-11.4c1.6-0.8,3.5-1.2,5.4-1.2s3.8,0.4,5.4,1.2c0.8,0.4,1.5,0.8,2.2,1.3c2.9,2.2,4.9,5.7,5,9.6
					C226.8,197.1,226.8,197.3,226.8,197.4z"/>
			</g>
		</g>
	</g>
	<g>
		<path class="st0" d="M238.3,160.6c-0.1,0-0.1,0-0.2,0c-3-0.1-5.3-2.6-5.2-5.6l0.7-21.6c0.1-3,2.6-5.4,5.6-5.2
			c3,0.1,5.3,2.6,5.2,5.6l-0.7,21.6C243.6,158.3,241.2,160.6,238.3,160.6z"/>
	</g>
	<g>
		<circle class="st0" cx="314.8" cy="226.5" r="10.8"/>
	</g>
	<g>
		<path class="st0" d="M337.3,213.2l-15.5-24.4c-1.6-2.5-5-3.3-7.5-1.7c-2.5,1.6-3.3,5-1.7,7.5l12.8,20.1l-4.8,2.5l-8.3,4.4
			c-2.7,1.4-3.7,4.7-2.3,7.3c1,1.9,2.8,2.9,4.8,2.9c0.8,0,1.7-0.2,2.5-0.6l8.3-4.4l9.2-4.8c1.5-0.8,2.7-2.2,3.1-3.9
			C338.4,216.5,338.2,214.7,337.3,213.2z"/>
	</g>
</g>
<g>
	<path class="st2" d="M426.9,236.4c1,0.8,1.8,1.7,2.3,2.9c0.6,1.2,0.9,2.4,0.9,3.7c0,1.7-0.4,3.1-1.3,4.5c-0.8,1.3-2.1,2.4-3.7,3.1
		c-1.6,0.8-3.5,1.1-5.7,1.1h-12.1v-32.5h11.7c2.2,0,4.1,0.4,5.6,1.1c1.6,0.7,2.7,1.7,3.5,3c0.8,1.2,1.2,2.6,1.2,4.2
		c0,1.9-0.5,3.5-1.6,4.8s-2.4,2.2-4.1,2.7C424.9,235.1,426,235.6,426.9,236.4z M411.6,233.3h7.1c2,0,3.5-0.5,4.6-1.4
		c1.1-0.9,1.7-2.3,1.7-3.9c0-1.7-0.5-3-1.6-4c-1.1-1-2.7-1.4-4.7-1.4h-7V233.3z M424.1,246.8c1.2-1,1.8-2.4,1.8-4.2
		s-0.6-3.2-1.9-4.3c-1.2-1.1-2.9-1.6-5-1.6h-7.4v11.7h7.5C421.2,248.3,422.9,247.8,424.1,246.8z"/>
	<path class="st2" d="M444.8,219.1v20.5c0,2.9,0.7,5,2.1,6.4c1.4,1.4,3.4,2.1,5.9,2.1c2.5,0,4.4-0.7,5.9-2.1
		c1.4-1.4,2.1-3.6,2.1-6.4v-20.5h4.2v20.5c0,2.7-0.5,5-1.6,6.8c-1.1,1.9-2.6,3.2-4.4,4.1c-1.9,0.9-3.9,1.4-6.2,1.4
		c-2.3,0-4.4-0.5-6.2-1.4c-1.9-0.9-3.3-2.3-4.4-4.1c-1.1-1.9-1.6-4.1-1.6-6.8v-20.5H444.8z"/>
	<path class="st2" d="M481.1,219.1v32.5h-4.2v-32.5H481.1z"/>
	<path class="st2" d="M497.3,248.4h11.4v3.3H493v-32.5h4.2V248.4z"/>
	<path class="st2" d="M537.2,221.1c2.6,1.3,4.6,3.2,6,5.7s2.1,5.4,2.1,8.7c0,3.3-0.7,6.2-2.1,8.7c-1.4,2.4-3.4,4.3-6,5.6
		c-2.6,1.3-5.7,1.9-9.2,1.9h-10.1v-32.5H528C531.5,219.1,534.6,219.8,537.2,221.1z M537.6,245c2.2-2.3,3.3-5.5,3.3-9.5
		c0-4-1.1-7.2-3.3-9.5c-2.2-2.3-5.4-3.4-9.6-3.4h-5.9v25.8h5.9C532.2,248.4,535.4,247.3,537.6,245z"/>
	<path class="st2" d="M593.1,235.4c-1.9,1.8-4.7,2.7-8.5,2.7h-6.3v13.6h-4.2v-32.5h10.5c3.7,0,6.5,0.9,8.4,2.7
		c1.9,1.8,2.9,4.1,2.9,6.9C595.9,231.4,594.9,233.6,593.1,235.4z M589.8,233.1c1.1-1.1,1.7-2.6,1.7-4.5c0-2-0.6-3.5-1.7-4.6
		c-1.1-1.1-2.9-1.6-5.2-1.6h-6.3v12.2h6.3C586.9,234.7,588.7,234.2,589.8,233.1z"/>
	<path class="st2" d="M628.6,219.1L618,239.4v12.3h-4.2v-12.3l-10.6-20.3h4.7l8,16.4l7.9-16.4H628.6z"/>
	<path class="st2" d="M654.9,251.7l-7.8-13.3H642v13.3h-4.2v-32.5h10.5c2.5,0,4.5,0.4,6.2,1.3c1.7,0.8,3,2,3.8,3.4
		c0.8,1.4,1.3,3.1,1.3,4.9c0,2.2-0.6,4.2-1.9,5.9c-1.3,1.7-3.2,2.8-5.8,3.4l8.2,13.6H654.9z M642,235h6.3c2.3,0,4-0.6,5.2-1.7
		c1.2-1.1,1.7-2.7,1.7-4.6c0-2-0.6-3.5-1.7-4.6c-1.1-1.1-2.9-1.6-5.2-1.6H642V235z"/>
	<path class="st2" d="M690,244.4h-14.2l-2.6,7.2h-4.5l11.8-32.4h4.9l11.7,32.4h-4.5L690,244.4z M688.9,241.1l-5.9-16.6l-5.9,16.6
		H688.9z"/>
	<path class="st2" d="M739.9,219.4v32.3h-4.2v-24.1L725,251.7h-3l-10.8-24v24h-4.2v-32.3h4.6l12,26.7l12-26.7H739.9z"/>
	<path class="st2" d="M756,219.1v32.5h-4.2v-32.5H756z"/>
	<path class="st2" d="M787.3,221.1c2.6,1.3,4.6,3.2,6,5.7c1.4,2.5,2.1,5.4,2.1,8.7c0,3.3-0.7,6.2-2.1,8.7c-1.4,2.4-3.4,4.3-6,5.6
		c-2.6,1.3-5.7,1.9-9.2,1.9h-10.1v-32.5h10.1C781.6,219.1,784.7,219.8,787.3,221.1z M787.7,245c2.2-2.3,3.3-5.5,3.3-9.5
		c0-4-1.1-7.2-3.3-9.5c-2.2-2.3-5.4-3.4-9.6-3.4h-5.9v25.8h5.9C782.3,248.4,785.4,247.3,787.7,245z"/>
	<path class="st2" d="M810.2,250.9c-1.7-0.8-3-1.8-4-3.2c-1-1.4-1.5-2.9-1.5-4.7h4.5c0.2,1.6,0.8,2.9,1.9,3.9
		c1.1,1.1,2.7,1.6,4.8,1.6c2,0,3.6-0.5,4.8-1.6c1.2-1,1.8-2.4,1.8-4c0-1.2-0.3-2.3-1-3c-0.7-0.8-1.5-1.4-2.6-1.8
		c-1-0.4-2.4-0.8-4.2-1.3c-2.1-0.6-3.9-1.1-5.2-1.7c-1.3-0.6-2.4-1.4-3.3-2.6c-0.9-1.2-1.4-2.8-1.4-4.8c0-1.8,0.5-3.3,1.4-4.7
		c0.9-1.4,2.2-2.4,3.8-3.2c1.6-0.7,3.5-1.1,5.6-1.1c3.1,0,5.5,0.8,7.5,2.3c1.9,1.5,3,3.5,3.3,6.1h-4.7c-0.2-1.3-0.8-2.5-1.9-3.4
		c-1.1-0.9-2.7-1.4-4.6-1.4c-1.8,0-3.2,0.5-4.3,1.4c-1.1,0.9-1.7,2.3-1.7,4c0,1.2,0.3,2.1,1,2.9s1.5,1.3,2.5,1.7
		c1,0.4,2.4,0.8,4.1,1.3c2.1,0.6,3.9,1.2,5.2,1.8c1.3,0.6,2.4,1.5,3.4,2.7c0.9,1.2,1.4,2.8,1.4,4.9c0,1.6-0.4,3.1-1.3,4.5
		s-2.1,2.5-3.7,3.4c-1.7,0.9-3.6,1.3-5.8,1.3C813.8,252,811.9,251.6,810.2,250.9z"/>
	<path class="st2" d="M842.1,245.8l-5.2,12.6H834l3.4-12.6H842.1z"/>
	<path class="st2" d="M895.8,251.7h-4.2l-17.1-25.9v25.9h-4.2v-32.6h4.2l17.1,25.9v-25.9h4.2V251.7z"/>
	<path class="st2" d="M914.2,249.9c-2.5-1.4-4.5-3.4-5.9-5.9c-1.4-2.5-2.2-5.4-2.2-8.6s0.7-6,2.2-8.6c1.4-2.5,3.4-4.5,5.9-5.9
		c2.5-1.4,5.2-2.1,8.3-2.1c3.1,0,5.8,0.7,8.3,2.1s4.5,3.4,5.9,5.9c1.4,2.5,2.1,5.4,2.1,8.6c0,3.2-0.7,6.1-2.1,8.6
		c-1.4,2.5-3.4,4.5-5.9,5.9c-2.5,1.4-5.3,2.1-8.3,2.1C919.4,252,916.7,251.3,914.2,249.9z M928.6,246.6c1.8-1.1,3.3-2.6,4.3-4.5
		c1-1.9,1.6-4.2,1.6-6.7s-0.5-4.8-1.6-6.7c-1-1.9-2.5-3.4-4.3-4.5c-1.8-1-3.9-1.6-6.1-1.6c-2.3,0-4.3,0.5-6.1,1.6
		c-1.8,1-3.3,2.5-4.3,4.5c-1,1.9-1.6,4.2-1.6,6.7s0.5,4.8,1.6,6.7c1,1.9,2.5,3.4,4.3,4.5c1.8,1.1,3.9,1.6,6.1,1.6
		C924.7,248.2,926.8,247.6,928.6,246.6z"/>
	<path class="st2" d="M969.1,219.1v3.3h-8.9v29.2H956v-29.2H947v-3.3H969.1z"/>
	<path class="st2" d="M1016.5,235.4c-1.9,1.8-4.7,2.7-8.5,2.7h-6.3v13.6h-4.2v-32.5h10.5c3.7,0,6.5,0.9,8.4,2.7
		c1.9,1.8,2.9,4.1,2.9,6.9C1019.3,231.4,1018.4,233.6,1016.5,235.4z M1013.3,233.1c1.1-1.1,1.7-2.6,1.7-4.5c0-2-0.6-3.5-1.7-4.6
		c-1.1-1.1-2.9-1.6-5.2-1.6h-6.3v12.2h6.3C1010.4,234.7,1012.1,234.2,1013.3,233.1z"/>
	<path class="st2" d="M1033.5,219.1v32.5h-4.2v-32.5H1033.5z"/>
	<path class="st2" d="M1049.7,248.4h11.4v3.3h-15.6v-32.5h4.2V248.4z"/>
	<path class="st2" d="M1074.5,222.4v11.2h11.9v3.3h-11.9v11.4h13.3v3.4h-17.5v-32.6h17.5v3.4H1074.5z"/>
	<path class="st2" d="M1103.4,250.9c-1.7-0.8-3-1.8-4-3.2c-1-1.4-1.5-2.9-1.5-4.7h4.5c0.2,1.6,0.8,2.9,1.9,3.9
		c1.1,1.1,2.7,1.6,4.8,1.6c2,0,3.6-0.5,4.8-1.6c1.2-1,1.8-2.4,1.8-4c0-1.2-0.3-2.3-1-3c-0.7-0.8-1.5-1.4-2.6-1.8
		c-1-0.4-2.4-0.8-4.2-1.3c-2.1-0.6-3.9-1.1-5.2-1.7c-1.3-0.6-2.4-1.4-3.3-2.6c-0.9-1.2-1.4-2.8-1.4-4.8c0-1.8,0.5-3.3,1.4-4.7
		c0.9-1.4,2.2-2.4,3.8-3.2c1.6-0.7,3.5-1.1,5.6-1.1c3.1,0,5.5,0.8,7.5,2.3c1.9,1.5,3,3.5,3.3,6.1h-4.7c-0.2-1.3-0.8-2.5-1.9-3.4
		c-1.1-0.9-2.7-1.4-4.6-1.4c-1.8,0-3.2,0.5-4.3,1.4c-1.1,0.9-1.7,2.3-1.7,4c0,1.2,0.3,2.1,1,2.9s1.5,1.3,2.5,1.7
		c1,0.4,2.4,0.8,4.1,1.3c2.1,0.6,3.9,1.2,5.2,1.8c1.3,0.6,2.4,1.5,3.4,2.7c0.9,1.2,1.4,2.8,1.4,4.9c0,1.6-0.4,3.1-1.3,4.5
		c-0.8,1.4-2.1,2.5-3.7,3.4c-1.7,0.9-3.6,1.3-5.8,1.3C1107,252,1105.1,251.6,1103.4,250.9z"/>
</g>
<text transform="matrix(1 0 0 1 404.3195 -642.4756)" style="font-family:'Poppins-Regular'; font-size:43.6278px; letter-spacing:4;">build Pyramids, not piles</text>
</svg>
